<svg width="128" height="29" viewBox="0 0 128 29" fill="none" xmlns="http://www.w3.org/2000/svg">
<path d="M13.2058 4.18841V0H0V28.7768H13.2058V24.5884C10.5006 24.5884 7.90613 23.5137 5.9933 21.6009C4.08043 19.688 3.0058 17.0936 3.0058 14.3884C3.0058 11.6832 4.08043 9.08875 5.9933 7.17592C7.90613 5.26305 10.5006 4.18841 13.2058 4.18841Z" fill="#272727"/>
<path d="M13.2036 4.18896V24.589C15.9088 24.589 18.5033 23.5143 20.4161 21.6014C22.329 19.6885 23.4036 17.0942 23.4036 14.389C23.4036 11.6838 22.329 9.08931 20.4161 7.17648C18.5033 5.26361 15.9088 4.18896 13.2036 4.18896Z" fill="#272727"/>
<path d="M30.8147 6.75049H33.7712V20.9911H30.8147V6.75049Z" fill="#272727"/>
<path d="M35.4277 16.1133C35.4277 15.0887 35.7319 14.0873 36.3018 13.2358C36.8716 12.3843 37.6814 11.7211 38.6285 11.3304C39.5757 10.9397 40.6175 10.839 41.6219 11.041C42.6264 11.2431 43.5482 11.7388 44.2706 12.4653C44.9929 13.1919 45.4834 14.1165 45.6797 15.1221C45.876 16.1277 45.7693 17.1689 45.3732 18.1138C44.977 19.0586 44.3093 19.8647 43.4546 20.4296C42.5998 20.9946 41.5966 21.293 40.5721 21.2872C39.8926 21.2925 39.2188 21.1621 38.5903 20.9035C37.9618 20.645 37.3912 20.2636 36.9121 19.7818C36.4329 19.2999 36.0549 18.7271 35.7999 18.0972C35.5451 17.4672 35.4185 16.7928 35.4277 16.1133ZM42.8387 16.1133C42.8271 15.6716 42.6855 15.2431 42.4316 14.8815C42.1777 14.5198 41.823 14.241 41.4114 14.08C41 13.9189 40.5502 13.8828 40.1183 13.9761C39.6864 14.0693 39.2916 14.2878 38.9832 14.6043C38.6749 14.9208 38.4666 15.3211 38.3846 15.7553C38.3026 16.1895 38.3504 16.6382 38.5221 17.0453C38.6938 17.4525 38.9816 17.8001 39.3498 18.0444C39.7179 18.2888 40.1499 18.4191 40.5918 18.4193C40.8926 18.4253 41.1914 18.369 41.4696 18.2541C41.7477 18.1393 41.9991 17.9683 42.2081 17.7519C42.4171 17.5354 42.5792 17.2781 42.6844 16.9963C42.7895 16.7143 42.8354 16.4137 42.819 16.1133H42.8387Z" fill="#272727"/>
<path d="M57.4158 11.2349V20.5085C57.4158 23.7804 54.8534 25.1699 52.2616 25.1699C51.3473 25.2449 50.4303 25.0633 49.6138 24.6454C48.7972 24.2276 48.1135 23.5901 47.6395 22.8047L50.1329 21.3659C50.3349 21.7733 50.6563 22.1093 51.0542 22.3294C51.4522 22.5495 51.9077 22.6431 52.3601 22.5977C52.6484 22.6332 52.9409 22.6046 53.2167 22.514C53.4927 22.4232 53.745 22.2727 53.9559 22.0731C54.1669 21.8734 54.3311 21.6297 54.4369 21.3592C54.5426 21.0887 54.5873 20.7982 54.5676 20.5085V19.6117C54.2236 20.0288 53.787 20.36 53.2927 20.5789C52.7983 20.7979 52.2597 20.8986 51.7195 20.8731C50.4126 20.8731 49.1594 20.3539 48.2353 19.4298C47.3112 18.5058 46.792 17.2525 46.792 15.9456C46.792 14.6387 47.3112 13.3854 48.2353 12.4613C49.1594 11.5372 50.4126 11.018 51.7195 11.018C52.2597 10.9925 52.7983 11.0932 53.2927 11.3122C53.787 11.5312 54.2236 11.8623 54.5676 12.2795V11.294L57.4158 11.2349ZM54.5676 15.916C54.5873 15.4445 54.4654 14.9779 54.2178 14.5762C53.9701 14.1745 53.6081 13.8561 53.1779 13.6619C52.7478 13.4676 52.2695 13.4065 51.8044 13.4863C51.3393 13.5662 50.9087 13.7833 50.568 14.1098C50.2273 14.4363 49.992 14.8573 49.8925 15.3186C49.793 15.7799 49.8337 16.2603 50.0094 16.6983C50.1852 17.1363 50.4879 17.5116 50.8787 17.7762C51.2695 18.0407 51.7306 18.1823 52.2024 18.1827C52.5104 18.2049 52.8196 18.1622 53.1099 18.0575C53.4003 17.9528 53.6656 17.7883 53.8884 17.5746C54.1114 17.3611 54.287 17.1031 54.404 16.8174C54.5209 16.5317 54.5767 16.2246 54.5676 15.916Z" fill="#272727"/>
<path d="M59.0802 16.1134C59.0802 15.0896 59.3839 14.089 59.9528 13.2379C60.5218 12.3868 61.3304 11.7236 62.2764 11.3324C63.2224 10.941 64.2632 10.8391 65.2671 11.0396C66.271 11.2401 67.1929 11.7338 67.9161 12.4583C68.6393 13.183 69.1313 14.1058 69.3298 15.11C69.5283 16.1144 69.4245 17.155 69.0313 18.1002C68.6382 19.0455 67.9735 19.8528 67.1214 20.4201C66.2693 20.9875 65.268 21.2893 64.2442 21.2873C63.5634 21.2939 62.8881 21.1645 62.2579 20.9067C61.6278 20.6489 61.0554 20.2679 60.5745 19.786C60.0935 19.3041 59.7136 18.731 59.4569 18.1004C59.2004 17.4697 59.0723 16.7942 59.0802 16.1134ZM66.4912 16.1134C66.4796 15.6713 66.3377 15.2424 66.0834 14.8805C65.8291 14.5187 65.4737 14.2399 65.0616 14.0792C64.6496 13.9185 64.1993 13.8829 63.7671 13.977C63.335 14.071 62.9402 14.2906 62.6322 14.608C62.3243 14.9255 62.1168 15.3268 62.036 15.7616C61.9551 16.1964 62.0043 16.6454 62.1774 17.0523C62.3506 17.4593 62.64 17.8061 63.0095 18.0493C63.3789 18.2924 63.8118 18.4212 64.2541 18.4195C64.555 18.4254 64.8538 18.3691 65.1319 18.2542C65.41 18.1394 65.6614 17.9684 65.8704 17.752C66.0794 17.5356 66.2416 17.2783 66.3467 16.9964C66.4519 16.7144 66.4977 16.4139 66.4813 16.1134H66.4912Z" fill="#272727"/>
<path d="M70.78 8.62335C70.78 8.27645 70.8829 7.93724 71.0757 7.64878C71.2684 7.36028 71.5424 7.13545 71.8629 7.00267C72.1835 6.8699 72.5362 6.83516 72.8765 6.90285C73.2167 6.97053 73.5293 7.1376 73.7747 7.38294C74.02 7.62828 74.187 7.94088 74.2547 8.28108C74.3224 8.62137 74.2876 8.97409 74.1549 9.29467C74.0222 9.61516 73.7973 9.88913 73.5088 10.0819C73.2203 10.2747 72.8812 10.3775 72.5342 10.3775C72.0706 10.3724 71.6274 10.186 71.2995 9.85809C70.9716 9.53021 70.7852 9.08703 70.78 8.62335ZM71.0658 11.2349H74.0223V20.9915H71.0658V11.2349Z" fill="#272727"/>
<path d="M86.6745 16.1128C86.7076 16.7617 86.6121 17.4107 86.3934 18.0225C86.1748 18.6343 85.8373 19.1968 85.4004 19.6777C84.9634 20.1586 84.4358 20.5483 83.8476 20.8244C83.2596 21.1006 82.6226 21.2576 81.9736 21.2867C81.4228 21.3234 80.8708 21.2352 80.3589 21.0287C79.847 20.8221 79.3883 20.5027 79.0171 20.0943V24.9134H76.0605V11.2345H79.0171V12.1511C79.3888 11.7438 79.8478 11.4258 80.3598 11.221C80.8718 11.0162 81.4235 10.9298 81.9736 10.9685C82.6201 10.9975 83.2544 11.1537 83.8405 11.428C84.4266 11.7023 84.953 12.0894 85.3895 12.567C85.826 13.0447 86.1642 13.6037 86.3846 14.2122C86.6051 14.8205 86.7036 15.4663 86.6745 16.1128ZM83.7179 16.1128C83.7063 15.655 83.5598 15.211 83.2968 14.8362C83.0339 14.4614 82.6661 14.1724 82.2397 14.0058C81.8132 13.839 81.3471 13.802 80.8996 13.8991C80.4522 13.9961 80.0434 14.2232 79.7244 14.5517C79.4054 14.8801 79.1904 15.2954 79.1066 15.7456C79.0226 16.1957 79.0733 16.6605 79.2525 17.0819C79.4317 17.5033 79.7312 17.8624 80.1135 18.1143C80.4959 18.3662 80.9441 18.4995 81.402 18.4977C81.7156 18.511 82.0285 18.4579 82.3201 18.3418C82.6118 18.2257 82.8756 18.0493 83.0943 17.8241C83.313 17.5989 83.4815 17.33 83.589 17.0351C83.6966 16.7402 83.7404 16.4259 83.7179 16.1128Z" fill="#272727"/>
<path d="M95.6704 18.0643C95.6704 20.3113 93.6994 21.2672 91.6101 21.2672C90.758 21.3439 89.9024 21.1632 89.154 20.7486C88.4057 20.334 87.7988 19.7045 87.4119 18.9414L89.9545 17.5026C90.0552 17.8542 90.2736 18.1606 90.5732 18.3705C90.8728 18.5804 91.2353 18.681 91.6003 18.6556C92.3 18.6556 92.6548 18.4388 92.6548 18.0446C92.6548 16.9704 87.8553 17.542 87.8553 14.1617C87.8553 12.033 89.649 10.9686 91.6791 10.9686C92.4508 10.9341 93.2175 11.1092 93.8976 11.4753C94.5778 11.8414 95.1461 12.3849 95.5423 13.0481L92.9997 14.3884C92.8873 14.1341 92.7038 13.9179 92.4713 13.7657C92.2386 13.6135 91.9669 13.532 91.689 13.531C91.1765 13.531 90.871 13.7281 90.871 14.073C90.871 15.1965 95.6704 14.4573 95.6704 18.0643Z" fill="#272727"/>
<path d="M106.382 11.2349V20.9914H103.425V20.0749C103.089 20.4806 102.662 20.8016 102.18 21.0122C101.698 21.2228 101.172 21.3169 100.646 21.287C98.675 21.287 96.9897 19.8778 96.9897 17.2465V11.2349H99.9463V16.803C99.9226 17.0358 99.9502 17.2708 100.027 17.4919C100.104 17.713 100.227 17.9148 100.389 18.0835C100.551 18.2522 100.748 18.3836 100.966 18.4689C101.184 18.554 101.418 18.5909 101.651 18.5769C102.716 18.5769 103.465 17.9462 103.465 16.6059V11.2349H106.382Z" fill="#272727"/>
<path d="M123.137 14.9988V20.9906H120.181V15.255C120.181 14.2695 119.718 13.6585 118.781 13.6585C117.845 13.6585 117.254 14.3385 117.254 15.4915V20.9906H114.297V15.255C114.297 14.2695 113.834 13.6585 112.898 13.6585C111.962 13.6585 111.37 14.3385 111.37 15.4915V20.9906H108.414V11.2341H111.37V12.1309C111.677 11.7348 112.076 11.421 112.534 11.218C112.992 11.0149 113.493 10.929 113.992 10.968C114.491 10.9419 114.99 11.0464 115.438 11.271C115.885 11.4956 116.266 11.8327 116.544 12.2492C116.869 11.814 117.299 11.4683 117.794 11.2443C118.288 11.0202 118.832 10.9252 119.373 10.968C121.679 10.968 123.137 12.5646 123.137 14.9988Z" fill="#272727"/>
<path d="M125.621 11.1756C126.818 11.1756 127.789 10.2049 127.789 9.00747C127.789 7.81008 126.818 6.83936 125.621 6.83936C124.424 6.83936 123.453 7.81008 123.453 9.00747C123.453 10.2049 124.424 11.1756 125.621 11.1756Z" fill="#272727"/>
</svg>
