<svg width="79" height="32" viewBox="0 0 79 32" fill="none" xmlns="http://www.w3.org/2000/svg">
<path d="M3.74772 3.32732C3.952 2.3578 4.91837 1.57135 5.90282 1.57135H11.2548L6.80399 22.6454H1.45199C0.466752 22.6454 -0.1665 21.8598 0.0385608 20.8895L3.74772 3.32732ZM21.588 3.32732C21.793 2.3578 22.7586 1.57135 23.7431 1.57135H29.0951L24.6443 22.6454H19.2923C18.307 22.6454 17.6738 21.8598 17.8788 20.8895L21.588 3.32732ZM57.2693 3.32732C57.4736 2.3578 58.4384 1.57135 59.4244 1.57135H64.7764L60.3256 22.6454H54.9728C53.9876 22.6454 53.3551 21.8598 53.5601 20.8895L57.2693 3.32732ZM30.8794 1.57135H36.2314C37.2166 1.57135 37.8498 2.35702 37.6448 3.32732L33.9356 20.8895C33.7313 21.8598 32.7658 22.6454 31.7805 22.6454H26.4285L30.8794 1.57135ZM66.5607 1.57135H71.9127C72.8979 1.57135 73.5312 2.35702 73.3261 3.32732L69.6161 20.8895C69.4119 21.8598 68.4471 22.6454 67.4618 22.6454H62.109L66.5607 1.57135ZM39.429 3.32732C39.6333 2.3578 40.5981 1.57135 41.5834 1.57135H46.9361L42.4845 22.6454H37.1325C36.1473 22.6454 35.514 21.8598 35.7199 20.8895L39.4283 3.32732H39.429ZM48.7196 1.57135H54.0724C55.0576 1.57135 55.6901 2.35702 55.485 3.32732L49.9217 29.6709C49.7159 30.6404 48.751 31.4269 47.7658 31.4269H42.413L48.7196 1.57135ZM10.0716 15.6207H17.2079L16.0954 20.8895C15.8903 21.8598 14.9247 22.6454 13.9403 22.6454H8.58746L10.0708 15.6215L10.0716 15.6207ZM34.9782 24.4022H42.1137L40.6303 31.4269H35.2783C34.2923 31.4269 33.6598 30.6412 33.8649 29.6709L34.9782 24.4022ZM54.3482 26.0356L53.4447 30.3144C53.4054 30.4982 53.3441 30.5485 53.1571 30.5485H52.7462C52.5592 30.5485 52.5183 30.4982 52.5576 30.3144L53.4611 26.0356C53.5004 25.8526 53.5617 25.8015 53.7487 25.8015H54.1596C54.3466 25.8015 54.3875 25.8526 54.3482 26.0356ZM55.5361 28.9222H55.452C55.3625 28.9222 55.331 28.9473 55.313 29.0361L55.0427 30.3144C55.0034 30.4982 54.9414 30.5485 54.7552 30.5485H54.3435C54.1573 30.5485 54.1164 30.4982 54.1549 30.3144L55.0584 26.0356C55.0977 25.8526 55.1606 25.8015 55.3468 25.8015H56.1953C57.1727 25.8015 57.5427 26.1495 57.362 27.0036L57.2112 27.7193C57.0305 28.5741 56.5135 28.9222 55.5361 28.9222ZM55.7844 26.8016L55.5487 27.922C55.529 28.0108 55.5495 28.0359 55.6398 28.0359H55.775C56.0892 28.0359 56.2581 27.9094 56.3265 27.5865L56.4208 27.1371C56.4891 26.815 56.3744 26.6877 56.0594 26.6877H55.9242C55.8347 26.6877 55.8032 26.7129 55.7844 26.8016ZM58.7212 27.4915L59.389 28.2261C59.7395 28.6056 59.7882 28.8334 59.6986 29.2577L59.675 29.3716C59.5061 30.169 59.1038 30.6122 58.1713 30.6122C57.2394 30.6122 57.0092 30.239 57.2245 29.2192L57.2512 29.0935C57.2905 28.9096 57.3526 28.8585 57.5388 28.8585H57.9756C58.1626 28.8585 58.2035 28.9096 58.1642 29.0927L58.1053 29.3716C58.0518 29.6246 58.1335 29.7259 58.3582 29.7259C58.5837 29.7259 58.7063 29.6316 58.755 29.4038L58.7802 29.2828C58.8179 29.1052 58.7974 29.0172 58.6042 28.8083L57.9756 28.131C57.6236 27.7578 57.5789 27.5418 57.6684 27.1175L57.6975 26.9792C57.8664 26.1818 58.2687 25.7378 59.2005 25.7378C60.1331 25.7378 60.3633 26.1118 60.148 27.1308L60.1213 27.2573C60.082 27.4412 60.0199 27.4915 59.8337 27.4915H59.3961C59.2099 27.4915 59.1691 27.4412 59.2076 27.2573L59.2665 26.9792C59.3199 26.7254 59.239 26.6249 59.0135 26.6249C58.7888 26.6249 58.6654 26.7192 58.6175 26.947L58.5947 27.0546C58.5555 27.2385 58.5759 27.3273 58.7212 27.4915ZM62.4862 26.0356C62.5255 25.8526 62.5867 25.8015 62.7737 25.8015H63.1846C63.3716 25.8015 63.4125 25.8526 63.3732 26.0356L62.7007 29.2199C62.4854 30.239 62.098 30.6122 61.1655 30.6122C60.2336 30.6122 60.0034 30.239 60.2187 29.2192L60.8913 26.0356C60.9305 25.8526 60.9926 25.8015 61.1788 25.8015H61.5905C61.7767 25.8015 61.8176 25.8526 61.7791 26.0356L61.0743 29.3716C61.0209 29.6246 61.1089 29.7259 61.3532 29.7259C61.5905 29.7259 61.728 29.6246 61.7814 29.3716L62.4862 26.0356ZM65.1622 28.6118C65.1645 28.6629 65.181 28.6747 65.2132 28.6747C65.2447 28.6747 65.2674 28.6629 65.291 28.6118L66.402 25.9665C66.4562 25.8329 66.5206 25.8015 66.6817 25.8015H67.3055C67.4917 25.8015 67.5325 25.8526 67.494 26.0356L66.5905 30.3144C66.5512 30.4982 66.4884 30.5485 66.3022 30.5485H66.0068C65.8206 30.5485 65.7789 30.4982 65.8182 30.3144L66.2519 28.2638C66.2637 28.2072 66.2535 28.1939 66.215 28.1939C66.189 28.1939 66.16 28.2072 66.1443 28.2512L65.247 30.3403C65.1826 30.492 65.1001 30.5485 64.9139 30.5485H64.7395C64.5462 30.5485 64.4881 30.492 64.4881 30.3403L64.4661 28.2504C64.4621 28.2064 64.4519 28.1939 64.4197 28.1939C64.3812 28.1939 64.3655 28.2072 64.3537 28.2638L63.9208 30.3144C63.8815 30.4982 63.8202 30.5485 63.6332 30.5485H63.3378C63.1508 30.5485 63.11 30.4982 63.1493 30.3144L64.0528 26.0356C64.0921 25.8526 64.1542 25.8015 64.3404 25.8015H64.8746C65.0993 25.8015 65.1716 25.8526 65.17 26.0741L65.1614 28.6118H65.1622ZM78.5673 1.57135C78.5673 2.43951 77.8681 3.14269 77.0062 3.14269C76.8005 3.14207 76.5969 3.10093 76.4071 3.02162C76.2173 2.94231 76.045 2.82638 75.9001 2.68046C75.7551 2.53453 75.6403 2.36147 75.5622 2.17117C75.4841 1.98086 75.4443 1.77704 75.4451 1.57135C75.4451 0.703177 76.1443 0 77.0062 0C77.8681 0 78.5673 0.703177 78.5673 1.57135Z" fill="#272727"/>
</svg>
