<svg width="104" height="24" viewBox="0 0 104 24" fill="none" xmlns="http://www.w3.org/2000/svg">
<path fill-rule="evenodd" clip-rule="evenodd" d="M8.98715 16.5565C8.19264 16.5565 7.43067 16.245 6.86886 15.6906C6.30706 15.1361 5.99144 14.3841 5.99144 13.6V0H0V13.6C0 18.4984 4.02385 22.4696 8.98715 22.4696H15.5777V16.5565H8.98715ZM26.9615 5.91304C26.2533 5.91304 25.5521 6.05069 24.8979 6.31814C24.2437 6.58558 23.6493 6.97757 23.1485 7.47174C22.6478 7.96591 22.2506 8.55258 21.9796 9.19824C21.7086 9.8439 21.5692 10.5359 21.5692 11.2348C21.5692 11.9336 21.7086 12.6257 21.9796 13.2713C22.2506 13.917 22.6478 14.5036 23.1485 14.9978C23.6493 15.492 24.2437 15.884 24.8979 16.1514C25.5521 16.4189 26.2533 16.5565 26.9615 16.5565C28.3916 16.5565 29.7631 15.9958 30.7744 14.9978C31.7856 13.9998 32.3538 12.6462 32.3538 11.2348C32.3538 9.82337 31.7856 8.46976 30.7744 7.47174C29.7631 6.47372 28.3916 5.91304 26.9615 5.91304ZM15.5777 11.2348C15.5777 5.03023 20.6746 0 26.9615 0C33.2483 0 38.3452 5.03023 38.3452 11.2348C38.3452 17.4393 33.2483 22.4696 26.9615 22.4696C20.6746 22.4696 15.5777 17.4393 15.5777 11.2348ZM91.669 5.91304C90.2388 5.91304 88.8673 6.47372 87.856 7.47174C86.8448 8.46976 86.2767 9.82337 86.2767 11.2348C86.2767 12.6462 86.8448 13.9998 87.856 14.9978C88.8673 15.9958 90.2388 16.5565 91.669 16.5565C93.0991 16.5565 94.4707 15.9958 95.4819 14.9978C96.4932 13.9998 97.0613 12.6462 97.0613 11.2348C97.0613 9.82337 96.4932 8.46976 95.4819 7.47174C94.4707 6.47372 93.0991 5.91304 91.669 5.91304ZM80.2852 11.2348C80.2852 5.03023 85.3822 0 91.669 0C97.9558 0 103.053 5.03023 103.053 11.2348C103.053 17.4393 97.9558 22.4696 91.669 22.4696C85.3822 22.4696 80.2852 17.4393 80.2852 11.2348ZM50.9272 0C44.6404 0 39.5435 5.03023 39.5435 11.2348C39.5435 17.4393 44.6404 22.4696 50.9272 22.4696H67.7032C68.8829 22.4696 70.0207 22.2922 71.0908 21.9634L74.2938 23.6522L77.7497 17.2637C78.6275 15.6374 79.0868 13.8231 79.087 11.9804V11.2348C79.087 5.03023 73.99 0 67.7032 0H50.9272ZM73.0955 11.2348C73.0955 9.82337 72.5274 8.46976 71.5162 7.47174C70.5049 6.47372 69.1334 5.91304 67.7032 5.91304H50.9272C50.2191 5.91304 49.5179 6.05069 48.8637 6.31814C48.2094 6.58558 47.615 6.97757 47.1143 7.47174C46.6136 7.96591 46.2164 8.55258 45.9454 9.19824C45.6744 9.8439 45.5349 10.5359 45.5349 11.2348C45.5349 11.9336 45.6744 12.6257 45.9454 13.2713C46.2164 13.917 46.6136 14.5036 47.1143 14.9978C47.615 15.492 48.2094 15.884 48.8637 16.1514C49.5179 16.4189 50.2191 16.5565 50.9272 16.5565H67.7032C69.1261 16.5566 70.4914 16.0016 71.5014 15.0125C72.5115 14.0234 73.0845 12.6804 73.0955 11.2762V11.2348Z" fill="#272727"/>
</svg>
