<?xml version="1.0" encoding="utf-8"?>
<!-- Generator: Adobe Illustrator 19.0.0, SVG Export Plug-In . SVG Version: 6.00 Build 0)  -->
<svg version="1.1" id="Layer_1" xmlns="http://www.w3.org/2000/svg" xmlns:xlink="http://www.w3.org/1999/xlink" x="0px" y="0px"
	 viewBox="-260 352 90 90" style="enable-background:new -260 352 90 90;" xml:space="preserve">
<style type="text/css">
	.st0{fill:#7D3BF4;}
	.st1{fill:#FFFFFF;}
</style>
<image style="overflow:visible;" width="1920" height="1080" xlink:href="A8077840.jpg"  transform="matrix(1 0 0 1 -8146 -7444)">
</image>
<image style="overflow:visible;" width="1920" height="1080" xlink:href="A8077847.jpg"  transform="matrix(1 0 0 1 -43 150)">
</image>
<rect x="-260" y="352" class="st0" width="90" height="90.6"/>
<g>
	<path class="st1" d="M-360.1,385.8c0,4.7,0,9.4,0,14.2l-9.9,9.9l-17-17l17-17l7.6,7.6L-360.1,385.8z"/>
	<path class="st1" d="M-326.8,388.6c-2.1-1.8-4.2-3.5-6.3-5.3c-1.8-1.5-3.7-3.1-5.5-4.6c0.5-0.6,0.9-1.2,1.4-1.8
		c0.9-1.1,0.9-1.5-0.1-2.6c-3.5-3.7-7.7-5.4-12.8-4.8c-6.4,0.8-11.9,6.4-12.2,12.8c0,0.3,0,0.7,0,1c-0.1,2.6,0,5.3-0.1,7.9
		c0,0.3,0,0.6,0,0.9l0.1,0.9l-0.1,9.1l-0.1,9.5c-0.3,0-0.5,0.1-0.8,0.1c-1.6,0-2.3,0.7-2.3,2.3c0,1.5,0,2.9,0,4.4
		c0,0.5,0.3,1.2,0.6,1.5c0.5,0.4,1.2,0.5,1.8,0.5c9.9,0,19.9,0,29.8,0c0.3,0,0.6,0,0.9-0.1c0.9-0.1,1.6-0.8,1.6-1.6
		c0.1-1.8,0.1-3.6,0-5.4c0-0.9-0.8-1.5-1.7-1.6c-0.4,0-0.9,0-1.4-0.1v-2.6c0-2.9-1-5.5-3.2-7.5c-0.8-0.8-1.6-1.5-2.4-2.3
		c-1.3-1.2-2.3-2.7-2.7-4.5c-0.1-0.6,0.2-1.1,0.9-1c0.2,0,0.4,0.1,0.6,0.1c2.8,0.8,5.6,1.5,8.4,2.3c0.8,0.2,1.4,0,1.9-0.7
		c1.2-1.7,2.4-3.3,3.7-5C-325.8,389.9-325.9,389.4-326.8,388.6 M-331.7,393.8c-0.1,0.1-0.5,0.1-0.8,0.1c-2.8-0.7-5.6-1.5-8.4-2.2
		c-0.7-0.2-1.2-0.1-1.8,0.3c-3.5,2.2-8,0.2-8.5-3.9c0-0.2,0-0.5-0.1-0.7c-0.1-0.8-0.6-1.2-1.3-1.2c-0.7,0-1.1,0.6-1.1,1.4
		c0.1,1.9,0.7,3.7,2,5.1c1.8,1.9,4,2.8,6.6,2.6c0.1,0,0.3,0,0.5,0c0.5,3.1,2.4,5.4,4.8,7.2c3.1,2.4,3.9,5.6,3.4,9.4H-360
		c0-0.3,0-0.6,0-0.8V400c0-4.7,0-9.4,0-14.2v-1.7c0-6,3.8-10.8,9.5-11.9c4.3-0.9,8,0.4,11.2,3.5c-0.6,0.8-1.1,1.4-1.7,2.1
		c-0.7,0.9-0.7,1.5,0.3,2.2c3.7,3.1,7.5,6.2,11.2,9.4c0.2,0.2,0.4,0.4,0.7,0.6C-329.9,391.3-330.8,392.6-331.7,393.8"/>
	<polygon class="st1" points="-343.1,381.4 -347.6,377 -352,381.4 -347.6,385.9 	"/>
</g>
<g>
	<path class="st1" d="M-68.2,380.4c-0.2-3.5-1.8-6.7-5.6-7.1l-46.8,0c-2.6,0.2-4.6,2.3-5.2,4.9c-0.5,12.1-0.1,24.3-0.2,36.4
		c0.2,3.1,2.3,6,5.5,6.3c2.4,0.2,5.1-0.2,7.5,0c1.5-0.2,1.4-2.2,0.1-2.4c-2.3-0.4-6.4,0.5-8.4-0.2c-1.2-0.4-2.4-2.2-2.4-3.5v-22.6
		l0.2-0.2h52.6v14.4h2.5C-68.2,399.8-67.8,386.8-68.2,380.4 M-70.7,389.5h-52.8v-10c0-1.3,1.2-3.2,2.5-3.5
		c15.7-0.4,31.5-0.1,47.2-0.2c1.3-0.1,3.1,2.1,3.1,3.2V389.5z M-103.3,419c-0.3,0.8,0,1.5,0.8,1.8l11.9,0v-2.4h-12.1
		C-102.7,418.4-103.2,418.9-103.3,419"/>
	<path class="st1" d="M-101.5,410.2c-0.4-0.4-0.4-1.1-0.2-1.6l3-3.4c0-0.3-2.6-2.9-2.9-3.4c-0.9-1.3,0.5-2.6,1.7-1.7
		c0.7,0.5,2.2,2.3,2.8,3.1c0.8,1,1.6,1.6,0.8,2.9c-0.3,0.6-3,3.6-3.6,4.1C-100.2,410.6-101.1,410.7-101.5,410.2"/>
	<path class="st1" d="M-114.6,399.8c1.1-0.2,1.7,0.7,1.4,1.7l-3.1,3.7l3.1,3.7c0.4,1.4-1.1,2.2-2.1,1.3c-0.6-0.6-3.3-3.6-3.6-4.2
		c-0.3-0.7-0.3-1.2,0.1-1.9c0.5-0.7,2.8-3.3,3.5-3.9C-115,400-114.8,399.9-114.6,399.8"/>
	<path class="st1" d="M-106.4,398.9c1.1-0.2,1.5,0.8,1.4,1.7c-0.5,3.3-1.8,6.8-2.4,10.1c-0.5,1.3-2.3,1-2.4-0.4l2.5-10.4
		C-107.3,399.3-107,398.9-106.4,398.9"/>
	<path class="st1" d="M-107.9,418.4c1.8-0.4,2.1,2.1,0.6,2.4C-108.9,421-109.4,418.7-107.9,418.4"/>
	<path class="st1" d="M-89.9,378.6c3.6,0.2,7.7-0.3,11.3,0c5.3,0.4,5.5,7.5,0.3,8.2c-3.7-0.2-7.7,0.3-11.4,0
		C-94.8,386.4-95,379.3-89.9,378.6 M-89.6,381c-2.2,0.3-2.2,3.1,0,3.4c3.4,0.4,7.6-0.3,11,0c2.2-0.5,2-3.1-0.2-3.4
		C-82.2,380.6-86.2,381.2-89.6,381"/>
	<path class="st1" d="M-104.4,378.6c5.5-0.5,6.2,7.9,0.7,8.2C-109,387.1-109.6,379.1-104.4,378.6 M-105.2,383.9
		c1.9,1.9,4.2-1.6,2-2.6C-105,380.4-106.4,382.7-105.2,383.9"/>
	<path class="st1" d="M-114.9,378.6c5.4-0.5,6,7.8,0.7,8.2C-119.7,387.2-120.3,379.1-114.9,378.6 M-114.6,381.1
		c-1.8,0-2.3,2.4-0.7,3.2C-112.9,385.3-112,381.1-114.6,381.1"/>
	<polygon class="st1" points="-70.1,411.5 -82.2,399.4 -94.3,411.5 -82.2,423.6 	"/>
	
		<rect x="-67.9" y="406.2" transform="matrix(0.7071 0.7071 -0.7071 0.7071 272.7285 164.7267)" class="st1" width="10.8" height="10.8"/>
</g>
<g>
	<path class="st1" d="M-241.6,398.1l50.5,0c0.4,0,0.7,0.3,0.8,0.6c0.1,0.5,0.1,2.9,0,3.5c0,0.2,0,0.3-0.1,0.4
		c-0.4,0.7-3.4,1.3-4.2,1.8c-0.5,1.8-1.3,3.6-2.3,5.3l1.6,3.5c0.2,0.4-0.1,0.8-0.3,1.1c-0.6,0.7-3.9,3.9-4.6,4.4
		c-0.1,0.1-0.4,0.2-0.5,0.3c-0.7,0.1-3.3-1.4-4.2-1.6c-1.7,1-3.6,1.7-5.6,2.2c-0.3,0.2-1.1,2.9-1.5,3.5c-0.1,0.2-0.3,0.4-0.6,0.5
		l-7.1,0.1c-0.2,0-0.3-0.1-0.4-0.1c-0.7-0.4-1.3-3.2-1.9-3.9c-1.9-0.5-3.8-1.2-5.6-2.2c-0.4,0-3,1.3-3.6,1.5
		c-0.6,0.2-0.8,0.1-1.2-0.3c-0.8-0.6-4-3.6-4.6-4.3c-0.2-0.3-0.4-0.6-0.3-1l1.7-3.6c-1-1.6-1.8-3.4-2.3-5.3
		c-0.7-0.5-3.9-1.2-4.2-1.9c-0.1-0.3-0.1-3.3-0.1-3.7C-242.2,398.5-242,398.2-241.6,398.1 M-229.6,399.8h-10.9v1.7
		c0.8,0.6,3.6,1.1,4.1,1.8c0.3,0.6,0.6,2,0.9,2.8c0.5,1.2,1.2,2.3,1.8,3.4l-1.6,3.8l3.8,3.6l0.3,0c1-0.3,2.3-1.2,3.3-1.4
		c0.2,0,0.3-0.1,0.5,0c2.1,1.1,4.3,2,6.6,2.6c0.7,0.5,1.2,3,1.8,3.8c0.2,0.1,4.7,0.1,5.2,0.1c0.1,0,0.3,0,0.3-0.1
		c0.5-0.8,1-3.3,1.7-3.7c1.3-0.4,2.6-0.7,3.9-1.3c0.7-0.3,2-1.1,2.6-1.3c0.2-0.1,0.3-0.1,0.5,0c1,0.2,2.4,1.2,3.4,1.4
		c0.1,0,0.2,0.1,0.4,0l3.7-3.6c0.1-0.4-1.7-3.1-1.6-3.8c0-0.4,1.2-2.1,1.4-2.7c0.2-0.4,0.4-0.9,0.6-1.3c0.2-0.6,0.5-1.8,0.7-2.2
		c0.4-0.7,3.3-1.2,4.1-1.8v-1.7H-203c-0.6,7.7-8.1,13.1-16.2,11.5C-224.9,410.2-229.2,405.4-229.6,399.8 M-204.8,399.8h-22.9
		c0.3,4.2,3.4,8,7.6,9.4C-213,411.6-205.5,407-204.8,399.8"/>
	<path class="st1" d="M-224.4,393.8c-0.8-2.4-2.8-4.4-5.3-5.3c0,0-0.1,0-0.2-0.1c2.1-1.8,2.2-4.3,1.1-6.1l-2-1.9
		c-1.2-0.6-2.7-0.8-4.3-0.2c-0.2,0.1-0.3,0.1-0.4,0.2l-2.3,2.1c-1,1.9-0.6,4.3,1.2,5.8c0,0-0.1,0-0.1,0.1c-2.5,1.1-4.6,3-5.4,5.6
		c-0.2,0.7-0.7,2.1,0.2,2.5l17.4,0C-223.5,396.2-224.1,394.4-224.4,393.8 M-233.6,381.6c4.4-0.6,5.1,5.6,1.1,6.2
		C-237.1,388.4-237.7,382.2-233.6,381.6 M-240.2,394.8c0.7-2.8,2.8-4.4,5.2-5c1.3-0.3,2.7-0.3,4,0c2.4,0.6,4.4,2.3,5.2,5H-240.2z"/>
	<path class="st1" d="M-195.6,375.3c0.6-0.1,3.8-0.1,4.4,0c0.4,0.1,0.7,0.2,0.8,0.6l0,19.9c0,0.4-0.3,0.7-0.7,0.8
		c-0.6,0.1-4,0.1-4.7,0c-0.5-0.1-0.6-0.4-0.7-0.8l0-19.3C-196.4,376-196.1,375.4-195.6,375.3 M-192.1,377h-2.2l-0.2,0.2v17.7h2.4
		V377z"/>
	<path class="st1" d="M-195.4,374.4c-0.4-0.3-0.2-0.8-0.2-1.3l-6,5.1c-0.3,0.3-0.7,0.3-1.1,0.2l-8.4-3.4l-8.6,6.2
		c-1.1,0.5-1.8-0.7-1-1.5l9.2-6.6l0.6,0l8.4,3.4l5.8-5c-0.3-0.1-0.7,0-1.1-0.1c-1-0.2-1-1.6,0.2-1.7c0.7-0.1,2.6-0.1,3.3,0
		c0.4,0.1,0.8,0.3,0.9,0.7c0.1,0.5-0.4,2.9-0.6,3.4C-194.1,374.5-194.8,374.8-195.4,374.4"/>
	<path class="st1" d="M-208.4,380.8c0.1,0.1,0.2,0.3,0.2,0.4l0,14.9c-0.1,0.3-0.4,0.5-0.7,0.5c-1.4,0.2-3.3-0.1-4.8,0
		c-0.4-0.1-0.5-0.7-0.6-1.1c-0.4-4.4,0.3-9.3,0-13.8c0-0.6,0.3-1.1,1-1.1c0.9-0.1,3.2-0.1,4.1,0
		C-208.9,380.5-208.6,380.6-208.4,380.8 M-210,382.2h-2.2l-0.2,0.2v12.4h2.4V382.2z"/>
	<path class="st1" d="M-204.5,383.2c0.5-0.1,3.8-0.1,4.4,0c0.3,0,0.7,0.3,0.8,0.5l0.1,12c0,0.3-0.2,0.6-0.6,0.8
		c-1.4-0.1-3.4,0.2-4.8,0c-0.6-0.1-0.7-0.6-0.8-1.1c-0.3-3.6,0.3-7.6,0-11.2C-205.3,383.8-205,383.3-204.5,383.2 M-201.1,385h-2.2
		l-0.2,0.2v9.7h2.4V385z"/>
	<path class="st1" d="M-222.4,387.3c0.5-0.1,3.9-0.1,4.6,0c0.5,0.1,0.7,0.4,0.8,0.9c0.2,2.4-0.2,5.2,0,7.6c-0.1,0.6-0.4,0.8-1,0.8
		c-1,0.1-3.3,0.1-4.2,0c-0.6-0.1-0.8-0.5-0.9-1c-0.2-1.7-0.2-5.6,0-7.3C-223.1,387.8-222.9,387.4-222.4,387.3 M-218.9,389h-2.4v5.9
		h2.4V389z"/>
	<polygon class="st1" points="-225.9,385 -229.6,388.5 -231.1,389.9 -233.1,391.7 -235.1,389.8 -236.5,388.4 -240.2,385 
		-235.4,380.4 -233.1,378.2 -230.7,380.4 -228.7,382.3 	"/>
</g>
</svg>
