<?xml version="1.0" encoding="utf-8"?>
<!-- Generator: Adobe Illustrator 19.0.0, SVG Export Plug-In . SVG Version: 6.00 Build 0)  -->
<svg version="1.1" id="Layer_1" xmlns="http://www.w3.org/2000/svg" xmlns:xlink="http://www.w3.org/1999/xlink" x="0px" y="0px"
	 viewBox="-260 352 90 90" style="enable-background:new -260 352 90 90;" xml:space="preserve">
<style type="text/css">
	.st0{fill:#7D3BF4;}
	.st1{fill:#FFFFFF;}
</style>
<image style="overflow:visible;" width="1920" height="1080" xlink:href="3482661D.jpg"  transform="matrix(1 0 0 1 -8146 -7444)">
</image>
<image style="overflow:visible;" width="1920" height="1080" xlink:href="3482661F.jpg"  transform="matrix(1 0 0 1 -43 150)">
</image>
<rect x="-260" y="352" class="st0" width="90" height="90.6"/>
<g>
	<path class="st1" d="M-360.1,385.8c0,4.7,0,9.4,0,14.2l-9.9,9.9l-17-17l17-17l7.6,7.6L-360.1,385.8z"/>
	<path class="st1" d="M-326.8,388.6c-2.1-1.8-4.2-3.5-6.3-5.3c-1.8-1.5-3.7-3.1-5.5-4.6c0.5-0.6,0.9-1.2,1.4-1.8
		c0.9-1.1,0.9-1.5-0.1-2.6c-3.5-3.7-7.7-5.4-12.8-4.8c-6.4,0.8-11.9,6.4-12.2,12.8c0,0.3,0,0.7,0,1c-0.1,2.6,0,5.3-0.1,7.9
		c0,0.3,0,0.6,0,0.9l0.1,0.9l-0.1,9.1l-0.1,9.5c-0.3,0-0.5,0.1-0.8,0.1c-1.6,0-2.3,0.7-2.3,2.3c0,1.5,0,2.9,0,4.4
		c0,0.5,0.3,1.2,0.6,1.5c0.5,0.4,1.2,0.5,1.8,0.5c9.9,0,19.9,0,29.8,0c0.3,0,0.6,0,0.9-0.1c0.9-0.1,1.6-0.8,1.6-1.6
		c0.1-1.8,0.1-3.6,0-5.4c0-0.9-0.8-1.5-1.7-1.6c-0.4,0-0.9,0-1.4-0.1v-2.6c0-2.9-1-5.5-3.2-7.5c-0.8-0.8-1.6-1.5-2.4-2.3
		c-1.3-1.2-2.3-2.7-2.7-4.5c-0.1-0.6,0.2-1.1,0.9-1c0.2,0,0.4,0.1,0.6,0.1c2.8,0.8,5.6,1.5,8.4,2.3c0.8,0.2,1.4,0,1.9-0.7
		c1.2-1.7,2.4-3.3,3.7-5C-325.8,389.9-325.9,389.4-326.8,388.6 M-331.7,393.8c-0.1,0.1-0.5,0.1-0.8,0.1c-2.8-0.7-5.6-1.5-8.4-2.2
		c-0.7-0.2-1.2-0.1-1.8,0.3c-3.5,2.2-8,0.2-8.5-3.9c0-0.2,0-0.5-0.1-0.7c-0.1-0.8-0.6-1.2-1.3-1.2c-0.7,0-1.1,0.6-1.1,1.4
		c0.1,1.9,0.7,3.7,2,5.1c1.8,1.9,4,2.8,6.6,2.6c0.1,0,0.3,0,0.5,0c0.5,3.1,2.4,5.4,4.8,7.2c3.1,2.4,3.9,5.6,3.4,9.4H-360
		c0-0.3,0-0.6,0-0.8V400c0-4.7,0-9.4,0-14.2v-1.7c0-6,3.8-10.8,9.5-11.9c4.3-0.9,8,0.4,11.2,3.5c-0.6,0.8-1.1,1.4-1.7,2.1
		c-0.7,0.9-0.7,1.5,0.3,2.2c3.7,3.1,7.5,6.2,11.2,9.4c0.2,0.2,0.4,0.4,0.7,0.6C-329.9,391.3-330.8,392.6-331.7,393.8"/>
	<polygon class="st1" points="-343.1,381.4 -347.6,377 -352,381.4 -347.6,385.9 	"/>
</g>
<g>
	<path class="st1" d="M-191.4,379.7c-0.2-3.5-1.8-6.7-5.6-7.1l-46.8,0c-2.6,0.2-4.6,2.3-5.2,4.9c-0.5,12.1-0.1,24.3-0.2,36.4
		c0.2,3.1,2.3,6,5.5,6.3c2.4,0.2,5.1-0.2,7.5,0c1.5-0.2,1.4-2.2,0.1-2.4c-2.3-0.4-6.4,0.5-8.4-0.2c-1.2-0.4-2.4-2.2-2.4-3.5v-22.6
		l0.2-0.2h52.6v14.4h2.5C-191.4,399.1-191.1,386-191.4,379.7 M-194,388.7h-52.8v-10c0-1.3,1.2-3.2,2.5-3.5
		c15.7-0.4,31.5-0.1,47.2-0.2c1.3-0.1,3.1,2.1,3.1,3.2V388.7z M-226.5,418.3c-0.3,0.8,0,1.5,0.8,1.8l11.9,0v-2.4h-12.1
		C-225.9,417.6-226.4,418.1-226.5,418.3"/>
	<path class="st1" d="M-224.7,409.4c-0.4-0.4-0.4-1.1-0.2-1.6l3-3.4c0-0.3-2.6-2.9-2.9-3.4c-0.9-1.3,0.5-2.6,1.7-1.7
		c0.7,0.5,2.2,2.3,2.8,3.1c0.8,1,1.6,1.6,0.8,2.9c-0.3,0.6-3,3.6-3.6,4.1C-223.5,409.8-224.3,409.9-224.7,409.4"/>
	<path class="st1" d="M-237.8,399.1c1.1-0.2,1.7,0.7,1.4,1.7l-3.1,3.7l3.1,3.7c0.4,1.4-1.1,2.2-2.1,1.3c-0.6-0.6-3.3-3.6-3.6-4.2
		c-0.3-0.7-0.3-1.2,0.1-1.9c0.5-0.7,2.8-3.3,3.5-3.9C-238.3,399.3-238,399.1-237.8,399.1"/>
	<path class="st1" d="M-229.7,398.1c1.1-0.2,1.5,0.8,1.4,1.7c-0.5,3.3-1.8,6.8-2.4,10.1c-0.5,1.3-2.3,1-2.4-0.4l2.5-10.4
		C-230.5,398.6-230.2,398.2-229.7,398.1"/>
	<path class="st1" d="M-231.1,417.6c1.8-0.4,2.1,2.1,0.6,2.4C-232.2,420.3-232.6,418-231.1,417.6"/>
	<path class="st1" d="M-213.2,377.8c3.6,0.2,7.7-0.3,11.3,0c5.3,0.4,5.5,7.5,0.3,8.2c-3.7-0.2-7.7,0.3-11.4,0
		C-218.1,385.7-218.2,378.5-213.2,377.8 M-212.8,380.3c-2.2,0.3-2.2,3.1,0,3.4c3.4,0.4,7.6-0.3,11,0c2.2-0.5,2-3.1-0.2-3.4
		C-205.4,379.9-209.4,380.5-212.8,380.3"/>
	<path class="st1" d="M-227.6,377.8c5.5-0.5,6.2,7.9,0.7,8.2C-232.2,386.4-232.9,378.3-227.6,377.8 M-228.4,383.1
		c1.9,1.9,4.2-1.6,2-2.6C-228.2,379.6-229.6,381.9-228.4,383.1"/>
	<path class="st1" d="M-238.2,377.8c5.4-0.5,6,7.8,0.7,8.2C-242.9,386.5-243.6,378.3-238.2,377.8 M-237.8,380.3
		c-1.8,0-2.3,2.4-0.7,3.2C-236.1,384.5-235.2,380.3-237.8,380.3"/>
	<polygon class="st1" points="-193.3,410.7 -205.4,398.6 -217.5,410.7 -205.4,422.8 	"/>
	
		<rect x="-191.1" y="405.4" transform="matrix(0.7071 0.7071 -0.7071 0.7071 236.0968 251.6349)" class="st1" width="10.8" height="10.8"/>
</g>
</svg>
