<?xml version="1.0" encoding="utf-8"?>
<!-- Generator: Adobe Illustrator 19.0.0, SVG Export Plug-In . SVG Version: 6.00 Build 0)  -->
<svg version="1.1" id="Layer_1" xmlns="http://www.w3.org/2000/svg" xmlns:xlink="http://www.w3.org/1999/xlink" x="0px" y="0px"
	 viewBox="-260 352 90 90" style="enable-background:new -260 352 90 90;" xml:space="preserve">
<style type="text/css">
	.st0{fill:#7D3BF4;}
	.st1{fill:#FFFFFF;}
</style>
<image style="overflow:visible;" width="1920" height="1080" xlink:href="9071FD71.jpg"  transform="matrix(1 0 0 1 -8146 -7444)">
</image>
<image style="overflow:visible;" width="1920" height="1080" xlink:href="9071FD73.jpg"  transform="matrix(1 0 0 1 -43 150)">
</image>
<rect x="-260" y="352" class="st0" width="90" height="90.6"/>
<g>
	<path class="st1" d="M-220.1,385.8c0,4.7,0,9.4,0,14.2l-9.9,9.9l-17-17l17-17l7.6,7.6L-220.1,385.8z"/>
	<path class="st1" d="M-186.8,388.6c-2.1-1.8-4.2-3.5-6.3-5.3c-1.8-1.5-3.7-3.1-5.5-4.6c0.5-0.6,0.9-1.2,1.4-1.8
		c0.9-1.1,0.9-1.5-0.1-2.6c-3.5-3.7-7.7-5.4-12.8-4.8c-6.4,0.8-11.9,6.4-12.2,12.8c0,0.3,0,0.7,0,1c-0.1,2.6,0,5.3-0.1,7.9
		c0,0.3,0,0.6,0,0.9l0.1,0.9l-0.1,9.1l-0.1,9.5c-0.3,0-0.5,0.1-0.8,0.1c-1.6,0-2.3,0.7-2.3,2.3c0,1.5,0,2.9,0,4.4
		c0,0.5,0.3,1.2,0.6,1.5c0.5,0.4,1.2,0.5,1.8,0.5c9.9,0,19.9,0,29.8,0c0.3,0,0.6,0,0.9-0.1c0.9-0.1,1.6-0.8,1.6-1.6
		c0.1-1.8,0.1-3.6,0-5.4c0-0.9-0.8-1.5-1.7-1.6c-0.4,0-0.9,0-1.4-0.1v-2.6c0-2.9-1-5.5-3.2-7.5c-0.8-0.8-1.6-1.5-2.4-2.3
		c-1.3-1.2-2.3-2.7-2.7-4.5c-0.1-0.6,0.2-1.1,0.9-1c0.2,0,0.4,0.1,0.6,0.1c2.8,0.8,5.6,1.5,8.4,2.3c0.8,0.2,1.4,0,1.9-0.7
		c1.2-1.7,2.4-3.3,3.7-5C-185.8,389.9-185.9,389.4-186.8,388.6 M-191.7,393.8c-0.1,0.1-0.5,0.1-0.8,0.1c-2.8-0.7-5.6-1.5-8.4-2.2
		c-0.7-0.2-1.2-0.1-1.8,0.3c-3.5,2.2-8,0.2-8.5-3.9c0-0.2,0-0.5-0.1-0.7c-0.1-0.8-0.6-1.2-1.3-1.2c-0.7,0-1.1,0.6-1.1,1.4
		c0.1,1.9,0.7,3.7,2,5.1c1.8,1.9,4,2.8,6.6,2.6c0.1,0,0.3,0,0.5,0c0.5,3.1,2.4,5.4,4.8,7.2c3.1,2.4,3.9,5.6,3.4,9.4H-220
		c0-0.3,0-0.6,0-0.8V400c0-4.7,0-9.4,0-14.2v-1.7c0-6,3.8-10.8,9.5-11.9c4.3-0.9,8,0.4,11.2,3.5c-0.6,0.8-1.1,1.4-1.7,2.1
		c-0.7,0.9-0.7,1.5,0.3,2.2c3.7,3.1,7.5,6.2,11.2,9.4c0.2,0.2,0.4,0.4,0.7,0.6C-189.9,391.3-190.8,392.6-191.7,393.8"/>
	<polygon class="st1" points="-203.1,381.4 -207.6,377 -212,381.4 -207.6,385.9 	"/>
</g>
</svg>
