<svg width="244" height="76" viewBox="0 0 244 76" fill="none" xmlns="http://www.w3.org/2000/svg">
<path d="M75.1688 59L90.1289 17.5091H96.9077L111.868 59H106.375L102.226 47.1955H84.811L80.6619 59H75.1688ZM86.5057 42.2868H100.531L93.5183 21.8919L86.5057 42.2868ZM125.039 59.7013C122.273 59.7013 119.916 59.2532 117.968 58.3572C116.059 57.4611 114.559 56.2339 113.468 54.6756C112.417 53.0783 111.813 51.2667 111.657 49.2409L116.799 48.8902C117.111 50.7603 117.91 52.2602 119.195 53.39C120.481 54.4808 122.429 55.0262 125.039 55.0262C127.143 55.0262 128.818 54.6951 130.065 54.0328C131.35 53.3315 131.993 52.2212 131.993 50.7018C131.993 49.8837 131.798 49.2019 131.409 48.6565C131.019 48.1111 130.26 47.6436 129.13 47.254C128 46.8254 126.325 46.4164 124.104 46.0268C121.143 45.4814 118.806 44.8191 117.092 44.0399C115.416 43.2218 114.209 42.2283 113.468 41.0596C112.767 39.8518 112.417 38.4299 112.417 36.7936C112.417 34.0275 113.429 31.7679 115.455 30.0148C117.481 28.2227 120.364 27.3267 124.104 27.3267C126.636 27.3267 128.76 27.7942 130.474 28.7292C132.227 29.6252 133.591 30.8329 134.564 32.3523C135.577 33.8327 136.24 35.469 136.551 37.2611L131.409 37.6117C131.175 36.5209 130.747 35.5664 130.123 34.7483C129.5 33.8912 128.682 33.2289 127.669 32.7614C126.656 32.2549 125.448 32.0017 124.046 32.0017C121.825 32.0017 120.189 32.4302 119.137 33.2873C118.085 34.1444 117.559 35.2353 117.559 36.5598C117.559 37.5728 117.793 38.4104 118.26 39.0727C118.767 39.696 119.565 40.222 120.656 40.6505C121.747 41.0401 123.208 41.3907 125.039 41.7024C128.195 42.2478 130.649 42.9101 132.402 43.6893C134.155 44.4684 135.383 45.4229 136.084 46.5527C136.785 47.6825 137.136 49.0656 137.136 50.7018C137.136 52.6108 136.59 54.2471 135.499 55.6106C134.448 56.9352 133.006 57.9481 131.175 58.6494C129.383 59.3506 127.338 59.7013 125.039 59.7013ZM151.052 59C148.247 59 146.163 58.3572 144.799 57.0715C143.475 55.7859 142.812 53.7795 142.812 51.0524V20.7816H147.721V50.9356C147.721 52.3381 148.033 53.312 148.656 53.8575C149.28 54.4029 150.234 54.6756 151.52 54.6756H155.961V59H151.052ZM138.254 32.3523V28.0279H155.961V32.3523H138.254ZM170.861 59.7013C167.939 59.7013 165.407 59.039 163.264 57.7144C161.161 56.3898 159.524 54.5198 158.356 52.1043C157.226 49.6499 156.661 46.7865 156.661 43.514C156.661 40.2414 157.226 37.3975 158.356 34.982C159.524 32.5666 161.141 30.6966 163.206 29.372C165.31 28.0084 167.784 27.3267 170.628 27.3267C173.316 27.3267 175.692 27.9695 177.757 29.2551C179.822 30.5018 181.419 32.3328 182.549 34.7483C183.718 37.1637 184.302 40.1051 184.302 43.5724V45.0333H161.803C161.998 48.3448 162.875 50.8382 164.433 52.5134C166.03 54.1886 168.173 55.0262 170.861 55.0262C172.887 55.0262 174.543 54.5587 175.828 53.6237C177.153 52.6497 178.069 51.3836 178.575 49.8252L183.834 50.2343C183.016 53.0004 181.458 55.2795 179.159 57.0715C176.9 58.8247 174.134 59.7013 170.861 59.7013ZM161.803 40.7089H178.926C178.692 37.7091 177.815 35.508 176.296 34.1055C174.816 32.7029 172.926 32.0017 170.628 32.0017C168.251 32.0017 166.284 32.7419 164.725 34.2223C163.206 35.6638 162.232 37.826 161.803 40.7089ZM188.029 59V28.0279H192.354L192.587 35.8586L192.12 35.6833C192.509 33.0341 193.347 31.1056 194.633 29.8979C195.957 28.6513 197.71 28.0279 199.892 28.0279H202.931V32.7029H199.951C198.392 32.7029 197.087 32.9951 196.035 33.5795C195.022 34.1249 194.243 34.9625 193.698 36.0923C193.191 37.1832 192.938 38.5857 192.938 40.2999V59H188.029ZM205.481 59V28.0279H210.389V59H205.481ZM205.364 23.1776V17.4507H210.506V23.1776H205.364ZM224.612 59.7013C221.417 59.7013 218.865 58.961 216.956 57.4806C215.086 56.0002 214.151 53.9354 214.151 51.2862C214.151 48.637 214.931 46.5527 216.489 45.0333C218.047 43.514 220.521 42.4426 223.911 41.8193L234.897 39.7739C234.897 37.1637 234.274 35.2158 233.027 33.9301C231.819 32.6445 229.988 32.0017 227.534 32.0017C225.391 32.0017 223.696 32.4887 222.45 33.4626C221.203 34.3976 220.346 35.7612 219.878 37.5533L214.677 37.1442C215.262 34.2223 216.664 31.8653 218.885 30.0732C221.144 28.2422 224.027 27.3267 227.534 27.3267C231.507 27.3267 234.546 28.4565 236.65 30.7161C238.754 32.9367 239.806 36.0144 239.806 39.9492V52.7471C239.806 53.4484 239.923 53.9549 240.156 54.2665C240.429 54.5392 240.858 54.6756 241.442 54.6756H242.669V59C242.513 59.039 242.26 59.0584 241.909 59.0584C241.559 59.0974 241.189 59.1169 240.799 59.1169C239.397 59.1169 238.247 58.9026 237.351 58.4741C236.494 58.0066 235.871 57.3053 235.481 56.3703C235.092 55.3963 234.897 54.1302 234.897 52.5718L235.481 52.6887C235.209 54.0133 234.546 55.221 233.494 56.3119C232.442 57.3637 231.137 58.2013 229.579 58.8247C228.021 59.4091 226.365 59.7013 224.612 59.7013ZM225.079 55.3769C227.144 55.3769 228.897 54.9873 230.339 54.2081C231.819 53.39 232.949 52.2991 233.728 50.9356C234.507 49.5331 234.897 47.9747 234.897 46.2605V44.0399L224.846 45.9099C222.742 46.2995 221.281 46.9034 220.463 47.7215C219.684 48.5007 219.294 49.5331 219.294 50.8187C219.294 52.2602 219.8 53.39 220.813 54.2081C221.865 54.9873 223.287 55.3769 225.079 55.3769Z" fill="black"/>
<g clip-path="url(#clip0_72_2464)">
<path d="M31.9606 38.0395C31.9606 38.0395 33.0173 53.3867 24.2019 62.2014C15.3866 71.0161 0.0399984 69.9601 0.0399984 69.9601C0.0399984 69.9601 -1.01664 54.6129 7.79872 45.7982C16.6141 36.9835 31.9606 38.0395 31.9606 38.0395Z" fill="#7D3BF4"/>
<path d="M63.9606 6.03945C63.9606 6.03945 65.0173 21.3867 56.2019 30.2014C47.3866 39.0161 32.04 37.9601 32.04 37.9601C32.04 37.9601 30.9834 22.6129 39.7987 13.7982C48.6141 4.98345 63.9606 6.03945 63.9606 6.03945Z" fill="#7D3BF4"/>
<path d="M31.9606 37.9601C31.9606 37.9601 16.6134 39.0168 7.79866 30.2014C-1.01606 21.3861 0.0399405 6.03951 0.0399405 6.03951C0.0399405 6.03951 15.3871 4.98287 24.2019 13.7982C33.0166 22.6136 31.9606 37.9601 31.9606 37.9601Z" fill="#7D3BF4"/>
<path d="M63.9606 69.9602C63.9606 69.9602 48.6134 71.0168 39.7987 62.2014C30.9839 53.3861 32.0399 38.0395 32.0399 38.0395C32.0399 38.0395 47.3871 36.9829 56.2019 45.7982C65.0166 54.6136 63.9606 69.9602 63.9606 69.9602Z" fill="#7D3BF4"/>
</g>
<defs>
<clipPath id="clip0_72_2464">
<rect width="64" height="64" fill="white" transform="translate(0 6)"/>
</clipPath>
</defs>
</svg>
