<svg width="581" height="155" viewBox="0 0 581 155" fill="none" xmlns="http://www.w3.org/2000/svg">
<path d="M0.469238 152L57.3477 8.0196H83.5832L140.672 152H119.053L104.991 116.32H34.8902L21.0378 152H0.469238ZM41.3965 99.319H98.275L80.8547 54.194C80.4349 52.9347 79.8053 51.1857 78.9657 48.9469C78.1262 46.7082 77.2167 44.2595 76.2372 41.601C75.2578 38.8025 74.2783 36.0041 73.2989 33.2056C72.3194 30.2673 71.4099 27.6087 70.5704 25.2301H69.3111C68.3316 28.0285 67.2122 31.2467 65.9529 34.8847C64.6936 38.5227 63.4343 42.0907 62.175 45.5888C60.9157 48.9469 59.8663 51.8153 59.0268 54.194L41.3965 99.319Z" fill="white"/>
<path d="M182.573 154.518C175.017 154.518 168.371 153.749 162.634 152.21C156.897 150.671 152.14 148.432 148.362 145.493C144.584 142.555 141.715 139.057 139.757 134.999C137.798 130.941 136.818 126.324 136.818 121.147C136.818 120.447 136.818 119.818 136.818 119.258C136.818 118.558 136.888 117.999 137.028 117.579H155.288C155.148 118.139 155.078 118.628 155.078 119.048C155.078 119.468 155.078 119.888 155.078 120.307C155.218 125.205 156.477 129.053 158.856 131.851C161.375 134.649 164.803 136.608 169.14 137.728C173.478 138.847 178.305 139.407 183.622 139.407C188.24 139.407 192.507 138.847 196.425 137.728C200.343 136.468 203.421 134.649 205.66 132.271C208.039 129.752 209.228 126.604 209.228 122.826C209.228 118.209 207.689 114.71 204.611 112.332C201.672 109.813 197.754 107.854 192.857 106.455C187.96 105.056 182.853 103.587 177.536 102.047C173.058 100.788 168.581 99.389 164.103 97.8498C159.626 96.3107 155.568 94.4217 151.93 92.1829C148.432 89.9442 145.563 87.0758 143.325 83.5777C141.226 79.9397 140.176 75.3923 140.176 69.9353C140.176 65.038 141.156 60.7004 143.115 56.9225C145.214 53.1446 148.152 49.9264 151.93 47.2678C155.708 44.6093 160.255 42.6504 165.572 41.3911C171.029 39.9919 177.046 39.2923 183.622 39.2923C190.618 39.2923 196.705 40.0618 201.882 41.601C207.199 43.1401 211.607 45.3089 215.105 48.1074C218.603 50.9058 221.191 54.124 222.87 57.762C224.55 61.2601 225.389 65.038 225.389 69.0957C225.389 69.9353 225.389 70.7748 225.389 71.6143C225.389 72.314 225.319 72.8737 225.179 73.2934H207.129V70.9847C207.129 68.1863 206.36 65.5277 204.82 63.0091C203.421 60.3506 200.903 58.2518 197.265 56.7126C193.767 55.0335 188.869 54.194 182.573 54.194C178.515 54.194 175.017 54.5438 172.079 55.2434C169.14 55.8031 166.692 56.7826 164.733 58.1818C162.774 59.4411 161.305 60.9802 160.325 62.7992C159.346 64.4783 158.856 66.4372 158.856 68.676C158.856 72.314 160.045 75.1124 162.424 77.0713C164.803 79.0302 167.951 80.6393 171.869 81.8986C175.926 83.1579 180.264 84.5572 184.882 86.0963C189.779 87.4955 194.746 88.9647 199.783 90.5039C204.96 91.9031 209.648 93.7221 213.845 95.9609C218.183 98.1996 221.611 101.278 224.13 105.196C226.788 108.974 228.118 114.011 228.118 120.307C228.118 126.184 226.998 131.291 224.759 135.629C222.521 139.966 219.302 143.534 215.105 146.333C211.047 149.131 206.22 151.16 200.623 152.42C195.166 153.819 189.149 154.518 182.573 154.518Z" fill="white"/>
<path d="M266.267 154.518C260.53 154.518 256.053 153.469 252.835 151.37C249.616 149.131 247.308 146.263 245.908 142.765C244.509 139.127 243.81 135.279 243.81 131.221V57.1324H229.538V41.601H244.229L247.588 10.7481H262.279V41.601H283.058V57.1324H262.279V128.493C262.279 131.991 262.909 134.649 264.168 136.468C265.428 138.147 267.806 138.987 271.304 138.987H283.058V151.16C281.659 151.86 279.98 152.42 278.021 152.839C276.062 153.259 274.033 153.609 271.934 153.889C269.975 154.309 268.086 154.518 266.267 154.518Z" fill="white"/>
<path d="M336.342 154.518C325.428 154.518 316.193 152.49 308.637 148.432C301.222 144.234 295.555 137.868 291.637 129.332C287.859 120.797 285.97 109.953 285.97 96.8004C285.97 83.5078 287.859 72.6638 291.637 64.2684C295.555 55.7332 301.292 49.4366 308.847 45.3789C316.403 41.1812 325.848 39.0824 337.182 39.0824C347.536 39.0824 356.211 41.1113 363.207 45.169C370.203 49.0868 375.45 55.0335 378.948 63.0091C382.586 70.8448 384.405 80.7093 384.405 92.6027V101.418H305.069C305.349 110.233 306.609 117.509 308.847 123.246C311.226 128.843 314.724 132.97 319.342 135.629C323.959 138.147 329.766 139.407 336.762 139.407C341.519 139.407 345.647 138.847 349.145 137.728C352.783 136.468 355.791 134.719 358.17 132.481C360.689 130.242 362.578 127.583 363.837 124.505C365.096 121.427 365.796 118.069 365.936 114.431H383.986C383.846 120.307 382.726 125.764 380.628 130.802C378.529 135.699 375.45 139.897 371.393 143.395C367.335 146.893 362.368 149.621 356.491 151.58C350.614 153.539 343.898 154.518 336.342 154.518ZM305.489 87.5655H365.306C365.306 81.4089 364.606 76.2318 363.207 72.0341C361.808 67.8364 359.779 64.4083 357.121 61.7498C354.602 59.0913 351.594 57.2023 348.096 56.083C344.737 54.8237 340.89 54.194 336.552 54.194C330.116 54.194 324.659 55.3833 320.181 57.762C315.704 60.1407 312.275 63.7787 309.897 68.676C307.518 73.5733 306.049 79.8698 305.489 87.5655Z" fill="white"/>
<path d="M392.56 152V41.601H407.461L409.141 59.8609H410.61C411.729 56.3628 413.268 53.0746 415.227 49.9963C417.186 46.7781 419.845 44.1896 423.203 42.2306C426.561 40.1318 430.689 39.0824 435.586 39.0824C437.685 39.0824 439.574 39.2923 441.253 39.712C443.072 39.9919 444.401 40.3417 445.241 40.7615V57.762H438.314C433.557 57.762 429.429 58.6016 425.931 60.2806C422.573 61.8198 419.775 64.0585 417.536 66.9969C415.297 69.9353 413.618 73.4333 412.499 77.4911C411.519 81.5488 411.03 85.8864 411.03 90.5039V152H392.56Z" fill="white"/>
<path d="M451.754 20.8225V0.253906H470.223V20.8225H451.754ZM451.754 152V41.601H470.223V152H451.754Z" fill="white"/>
<path d="M509.809 154.518C505.752 154.518 501.694 154.029 497.636 153.049C493.578 152.07 489.8 150.461 486.302 148.222C482.804 145.983 480.006 142.905 477.907 138.987C475.808 134.929 474.759 129.892 474.759 123.875C474.759 116.32 476.578 110.093 480.216 105.196C483.854 100.298 488.891 96.5205 495.327 93.862C501.904 91.0636 509.669 89.1746 518.624 88.1952C527.579 87.0758 537.304 86.5161 547.798 86.5161V73.9231C547.798 69.8653 547.099 66.3673 545.699 63.4289C544.3 60.4905 541.782 58.2518 538.144 56.7126C534.645 55.0335 529.608 54.194 523.032 54.194C516.735 54.194 511.698 55.0335 507.92 56.7126C504.282 58.2518 501.694 60.2806 500.155 62.7992C498.755 65.3178 498.056 68.1163 498.056 71.1946V74.3428H480.216C480.076 73.6432 480.006 72.9436 480.006 72.244C480.006 71.5444 480.006 70.7049 480.006 69.7254C480.006 63.0091 481.825 57.4122 485.463 52.9347C489.241 48.3173 494.488 44.8892 501.204 42.6504C507.92 40.2717 515.616 39.0824 524.291 39.0824C533.526 39.0824 541.222 40.4116 547.378 43.0702C553.675 45.7287 558.362 49.5066 561.441 54.4039C564.659 59.3012 566.268 65.1779 566.268 72.0341V131.851C566.268 134.509 566.898 136.398 568.157 137.518C569.416 138.497 570.955 138.987 572.774 138.987H580.96V151.16C579.001 152 576.832 152.699 574.453 153.259C572.075 153.959 569.346 154.309 566.268 154.309C562.63 154.309 559.622 153.539 557.243 152C554.864 150.601 553.045 148.642 551.786 146.123C550.527 143.465 549.687 140.526 549.267 137.308H547.798C545.28 140.806 542.061 143.884 538.144 146.543C534.366 149.061 530.098 151.02 525.341 152.42C520.583 153.819 515.406 154.518 509.809 154.518ZM514.427 138.987C518.904 138.987 523.102 138.287 527.02 136.888C531.078 135.489 534.646 133.53 537.724 131.011C540.802 128.353 543.251 125.205 545.07 121.567C546.889 117.929 547.798 113.941 547.798 109.603V100.368C536.465 100.368 526.81 100.998 518.834 102.257C510.859 103.517 504.702 105.755 500.365 108.974C496.167 112.192 494.068 116.739 494.068 122.616C494.068 126.394 494.908 129.472 496.587 131.851C498.266 134.23 500.644 136.049 503.723 137.308C506.801 138.427 510.369 138.987 514.427 138.987Z" fill="white"/>
</svg>
