<svg width="868" height="871" viewBox="0 0 868 871" fill="none" xmlns="http://www.w3.org/2000/svg">
<path d="M398.363 774.103C398.584 777.973 399.825 782.252 402.086 786.94C404.341 791.687 407.8 796.241 412.463 800.604C417.068 804.96 421.826 807.943 426.735 809.552L426.327 813.234C421.229 813.852 416.226 815.487 411.318 818.137C406.344 820.84 402.059 824.269 398.462 828.426C394.794 832.693 392.273 837.029 390.897 841.432L387.215 841.023C387.013 838.043 386.295 834.916 385.06 831.644C383.819 828.43 382.127 825.284 379.983 822.206C377.775 819.181 375.245 816.386 372.393 813.821C368.139 810.036 363.674 807.352 358.998 805.769L359.406 802.087C362.692 801.8 366.169 800.855 369.838 799.25C373.448 797.639 376.867 795.621 380.093 793.199C383.314 790.834 386.024 788.265 388.225 785.492C391.458 781.413 393.61 777.481 394.68 773.695L398.363 774.103Z" fill="black"/>
<path d="M320.7 760.988L297.086 818.991L290.06 816.131L312.344 761.396L314.393 766.42L281.879 753.183L284.673 746.321L320.7 760.988Z" fill="black"/>
<path d="M269.786 738.586L237.002 791.945L203.484 771.351L207.362 765.038L234.417 781.661L244.991 764.451L218.838 748.382L222.624 742.219L248.778 758.288L259.444 740.928L231.787 723.935L235.666 717.622L269.786 738.586Z" fill="black"/>
<path d="M212.211 698.782L176.178 740.62L190.948 753.341L186.113 758.955L150.825 728.563L155.66 722.949L170.43 735.67L206.464 693.832L212.211 698.782Z" fill="black"/>
<path d="M156.952 700.204L144.003 706.495L147.071 709.784L139.783 716.584L132.984 709.296L139.369 703.339L153.943 696.98L156.952 700.204Z" fill="black"/>
<path d="M156.21 636.478C159.052 640.373 160.794 644.307 161.436 648.279C162.077 652.251 161.739 656.028 160.422 659.61C159.022 663.179 156.716 666.353 153.504 669.134L148.398 663.033C150.673 660.864 152.273 658.568 153.199 656.145C154.125 653.723 154.346 651.232 153.862 648.673C153.343 646.067 152.096 643.41 150.121 640.703C148.388 638.327 146.606 636.534 144.775 635.322C142.945 634.11 141.124 633.51 139.312 633.521C137.466 633.485 135.688 634.091 133.978 635.338C132.41 636.482 131.31 637.867 130.677 639.494C129.962 641.108 129.868 643.323 130.395 646.141C130.841 648.947 132.037 652.732 133.986 657.498C135.83 662.121 137.008 666.029 137.519 669.223C137.995 672.37 137.759 675.09 136.812 677.383C135.829 679.628 134.079 681.669 131.562 683.506C128.712 685.586 125.732 686.74 122.624 686.97C119.434 687.187 116.327 686.469 113.302 684.818C110.23 683.202 107.429 680.66 104.899 677.192C102.195 673.487 100.586 669.784 100.07 666.084C99.5065 662.419 99.8642 658.918 101.143 655.583C102.422 652.248 104.467 649.264 107.277 646.631L112.384 652.732C110.549 654.507 109.229 656.489 108.424 658.678C107.537 660.854 107.283 663.15 107.663 665.567C108.043 667.983 109.151 670.45 110.988 672.967C113.276 676.102 115.855 678.042 118.727 678.785C121.551 679.563 124.175 679.069 126.598 677.301C128.165 676.157 129.212 674.848 129.737 673.373C130.18 671.885 130.112 669.896 129.533 667.407C128.907 664.952 127.745 661.614 126.048 657.393C124.009 652.403 122.824 648.135 122.494 644.591C122.082 641.033 122.445 638.039 123.583 635.607C124.686 633.128 126.449 631.005 128.871 629.237C131.816 627.089 134.936 625.977 138.23 625.903C141.477 625.863 144.665 626.74 147.793 628.534C150.874 630.362 153.68 633.01 156.21 636.478Z" fill="black"/>
<path d="M113.621 557.828C115.738 563.314 116.231 568.513 115.101 573.424C113.971 578.335 111.531 582.712 107.782 586.554C103.957 590.362 99.1099 593.398 93.2399 595.664C87.3699 597.929 81.7285 598.908 76.3157 598.602C70.903 598.296 66.1284 596.703 61.992 593.824C57.7796 590.912 54.6148 586.712 52.4977 581.226C50.6982 576.563 50.0348 572.313 50.5076 568.475C50.9592 564.581 52.2789 561.141 54.4666 558.154C56.6332 555.112 59.3893 552.536 62.7349 550.425L66.0867 557.641C62.5765 559.815 60.1183 562.591 58.712 565.97C57.2509 569.37 57.4836 573.567 59.4101 578.559C61.1249 583.003 63.6194 586.2 66.8935 588.151C70.1465 590.047 73.8374 590.955 77.9662 590.874C82.0191 590.76 86.1576 589.888 90.3818 588.258C94.8255 586.543 98.5762 584.339 101.634 581.646C104.637 578.975 106.641 575.838 107.646 572.235C108.651 568.633 108.317 564.665 106.645 560.331C105.311 556.875 103.389 554.181 100.879 552.25C98.3143 550.341 95.4506 549.208 92.2881 548.853C89.1255 548.498 85.9976 548.885 82.9042 550.016L89.3825 566.803L82.6347 569.407L73.6159 546.037L103.158 534.636L105.19 539.903L91.8855 545.605L92.6564 544.173C95.5438 543.815 98.3897 544.166 101.194 545.227C103.944 546.309 106.43 547.934 108.653 550.101C110.8 552.235 112.456 554.811 113.621 557.828Z" fill="black"/>
<path d="M99.2888 518.723L37.7882 530.54L30.3653 491.907L37.6414 490.509L43.633 521.693L63.4691 517.881L57.6772 487.737L64.7801 486.373L70.572 516.517L90.5813 512.672L84.4566 480.796L91.7327 479.398L99.2888 518.723Z" fill="black"/>
<path d="M89.8073 449.375L34.6154 451.019L35.1957 470.503L27.7897 470.724L26.4035 424.172L33.8094 423.952L34.3896 443.436L89.5815 441.793L89.8073 449.375Z" fill="black"/>
<path d="M95.7839 369.748L41.696 358.642L37.7751 377.737L30.5173 376.246L39.885 330.626L47.1428 332.116L43.2218 351.211L97.3096 362.317L95.7839 369.748Z" fill="black"/>
<path d="M115.202 308.47C113.001 313.987 109.904 318.259 105.91 321.287C101.883 324.239 97.1786 325.876 91.7956 326.198C86.4126 326.52 80.5806 325.428 74.2995 322.922C68.0185 320.416 63.0362 317.194 59.3526 313.256C55.6145 309.295 53.3009 304.859 52.4119 299.946C51.5446 294.978 52.2113 289.736 54.4119 284.22C56.6343 278.649 59.7588 274.387 63.7854 271.435C67.8337 268.429 72.5767 266.775 78.0143 266.476C83.3974 266.154 89.2294 267.246 95.5105 269.752C101.791 272.257 106.774 275.479 110.457 279.418C114.141 283.356 116.416 287.809 117.283 292.777C118.118 297.668 117.424 302.899 115.202 308.47ZM108.32 305.725C109.932 301.683 110.376 297.872 109.652 294.291C108.95 290.655 107.156 287.376 104.271 284.452C101.385 281.528 97.4846 279.086 92.569 277.125C87.6534 275.164 83.1428 274.251 79.0372 274.386C74.877 274.499 71.291 275.632 68.2792 277.786C65.2346 279.864 62.9061 282.923 61.2938 286.965C59.7032 290.952 59.2864 294.774 60.0432 298.432C60.7672 302.013 62.5993 305.276 65.5393 308.221C68.4248 311.145 72.3253 313.588 77.2409 315.549C82.1565 317.509 86.6671 318.423 90.7728 318.288C94.8784 318.153 98.4262 317.036 101.416 314.936C104.428 312.782 106.729 309.712 108.32 305.725Z" fill="black"/>
<path d="M153.34 234.227L94.4197 207.348L99.6688 200.93L148.242 224.019L115.918 181.061L121.391 174.369L169.964 197.459L137.641 154.5L142.946 148.014L180.981 200.429L174.95 207.803L129.579 186.65L159.315 226.921L153.34 234.227Z" fill="black"/>
<path d="M223.695 164.128C218.998 167.763 214.16 169.871 209.182 170.452C204.214 170.951 199.33 169.972 194.529 167.516C189.728 165.06 185.259 161.158 181.12 155.81C176.981 150.462 174.325 145.156 173.151 139.893C171.942 134.583 172.201 129.586 173.93 124.902C175.705 120.182 178.941 116.005 183.638 112.37C188.381 108.699 193.237 106.614 198.204 106.115C203.219 105.581 208.144 106.565 212.981 109.067C217.782 111.524 222.252 115.426 226.391 120.773C230.529 126.121 233.186 131.427 234.359 136.69C235.533 141.954 235.232 146.945 233.457 151.665C231.692 156.303 228.438 160.457 223.695 164.128ZM219.16 158.268C222.601 155.605 224.919 152.547 226.114 149.095C227.355 145.606 227.474 141.87 226.473 137.886C225.472 133.902 223.352 129.817 220.113 125.632C216.873 121.447 213.451 118.37 209.846 116.401C206.204 114.386 202.539 113.542 198.851 113.868C195.173 114.112 191.614 115.566 188.173 118.229C184.778 120.856 182.478 123.938 181.273 127.473C180.078 130.925 180 134.667 181.037 138.697C182.038 142.681 184.159 146.766 187.398 150.951C190.637 155.136 194.059 158.213 197.664 160.182C201.27 162.15 204.894 162.989 208.535 162.699C212.224 162.373 215.765 160.896 219.16 158.268Z" fill="black"/>
<path d="M259.694 137.242L231.555 81.2939L252.753 70.6328C256.692 68.6511 260.424 67.6299 263.948 67.569C267.472 67.5081 270.643 68.3816 273.461 70.1895C276.305 71.9184 278.599 74.5165 280.343 77.9837C281.611 80.5053 282.143 83.068 281.939 85.672C281.761 88.197 281.043 90.4997 279.786 92.5802C278.528 94.6607 276.928 96.2555 274.985 97.3646L274.155 96.8932C277.57 95.1758 280.645 94.6163 283.382 95.2147C286.17 95.7866 288.594 97.7269 290.653 101.036L300.513 116.712L293.657 120.16L284.312 105.114C282.94 102.908 281.24 101.623 279.214 101.26C277.241 100.87 274.626 101.494 271.369 103.132L255.136 111.297L266.471 133.833L259.694 137.242ZM251.807 104.677L267.094 96.9887C270.509 95.2713 272.778 93.0438 273.903 90.3062C275.027 87.5686 274.783 84.5975 273.172 81.393C271.534 78.1359 269.254 76.1558 266.333 75.4527C263.386 74.697 259.969 75.2967 256.082 77.2519L241.661 84.5047L251.807 104.677Z" fill="black"/>
<path d="M317.252 110.433L299.577 50.3533L306.855 48.2124L315.642 78.0829L333.848 40.2711L343.072 37.5576L327.215 70.5409L362.354 97.1643L353.469 99.7782L323.9 77.4004L318.629 88.2372L324.529 108.292L317.252 110.433Z" fill="black"/>
<path d="M458.189 95.2307C457.836 91.3702 456.45 87.1357 454.032 82.5271C451.617 77.86 448.006 73.4254 443.197 69.2234C438.447 65.026 433.591 62.2063 428.63 60.7646L428.913 57.0708C433.986 56.2801 438.931 54.4769 443.747 51.6613C448.626 48.7915 452.792 45.2184 456.245 40.942C459.766 36.5527 462.14 32.1345 463.365 27.6873L467.059 27.9703C467.362 30.9424 468.186 34.0428 469.531 37.2715C470.88 40.4417 472.678 43.5283 474.925 46.5313C477.235 49.4802 479.859 52.1877 482.795 54.6539C487.176 58.2922 491.729 60.8233 496.456 62.2471L496.173 65.9409C492.899 66.3387 489.456 67.4018 485.844 69.1301C482.29 70.863 478.942 72.9949 475.799 75.5259C472.661 77.9983 470.039 80.6577 467.934 83.5041C464.841 87.6903 462.824 91.6935 461.883 95.5137L458.189 95.2307Z" fill="black"/>
<path d="M562.037 114.837L588.258 57.9647L595.147 61.1408L570.403 114.809L568.583 109.696L600.464 124.395L597.361 131.123L562.037 114.837Z" fill="black"/>
<path d="M611.882 139.526L647.053 87.7089L679.603 109.802L675.442 115.932L649.168 98.0994L637.825 114.812L663.222 132.051L659.16 138.035L633.763 120.797L622.32 137.655L649.177 155.885L645.016 162.015L611.882 139.526Z" fill="black"/>
<path d="M667.592 181.9L705.486 141.739L691.308 128.361L696.393 122.972L730.266 154.934L725.182 160.323L711.003 146.945L673.109 187.106L667.592 181.9Z" fill="black"/>
<path d="M722.859 182.986L736.081 177.289L733.164 173.864L740.753 167.402L747.215 174.991L740.566 180.652L725.718 186.344L722.859 182.986Z" fill="black"/>
<path d="M720.71 246.68C718.047 242.66 716.486 238.651 716.025 234.654C715.564 230.657 716.073 226.899 717.551 223.381C719.111 219.879 721.559 216.812 724.894 214.181L729.719 220.507C727.347 222.571 725.645 224.792 724.61 227.17C723.575 229.548 723.241 232.026 723.609 234.604C724.008 237.231 725.134 239.942 726.984 242.736C728.608 245.187 730.306 247.06 732.08 248.354C733.854 249.648 735.646 250.33 737.456 250.401C739.299 250.52 741.102 249.996 742.867 248.827C744.485 247.756 745.647 246.422 746.353 244.826C747.141 243.246 747.335 241.037 746.936 238.198C746.619 235.375 745.595 231.539 743.864 226.69C742.231 221.988 741.232 218.03 740.867 214.816C740.534 211.651 740.893 208.945 741.944 206.698C743.027 204.499 744.867 202.539 747.466 200.819C750.407 198.87 753.436 197.852 756.551 197.764C759.748 197.692 762.82 198.549 765.766 200.336C768.762 202.09 771.445 204.757 773.815 208.336C776.347 212.16 777.788 215.932 778.135 219.651C778.532 223.338 778.015 226.819 776.586 230.092C775.158 233.366 772.98 236.255 770.053 238.757L765.228 232.431C767.142 230.741 768.55 228.82 769.453 226.67C770.439 224.537 770.796 222.255 770.526 219.824C770.256 217.393 769.261 214.878 767.54 212.28C765.397 209.044 762.908 206.99 760.073 206.117C757.287 205.211 754.644 205.586 752.143 207.242C750.525 208.314 749.421 209.574 748.829 211.024C748.319 212.49 748.297 214.48 748.762 216.993C749.276 219.474 750.285 222.861 751.789 227.155C753.6 232.232 754.59 236.549 754.759 240.105C755.009 243.678 754.511 246.653 753.264 249.03C752.05 251.456 750.192 253.497 747.692 255.153C744.652 257.166 741.485 258.135 738.191 258.06C734.946 257.952 731.801 256.932 728.757 254.998C725.763 253.032 723.08 250.259 720.71 246.68Z" fill="black"/>
<path d="M759.688 327.181C757.822 321.605 757.565 316.389 758.916 311.534C760.268 306.679 762.904 302.418 766.823 298.75C770.817 295.119 775.797 292.306 781.764 290.309C787.73 288.312 793.41 287.59 798.804 288.141C804.197 288.693 808.894 290.5 812.896 293.564C816.972 296.665 819.943 301.003 821.809 306.58C823.395 311.32 823.865 315.596 823.219 319.409C822.591 323.277 821.117 326.654 818.796 329.539C816.493 332.48 813.623 334.928 810.185 336.885L807.164 329.525C810.769 327.512 813.351 324.85 814.909 321.538C816.523 318.208 816.481 314.005 814.783 308.931C813.271 304.414 810.924 301.107 807.742 299.009C804.579 296.967 800.933 295.893 796.804 295.786C792.75 295.717 788.577 296.4 784.283 297.837C779.766 299.349 775.919 301.38 772.742 303.931C769.621 306.464 767.477 309.507 766.31 313.06C765.142 316.613 765.296 320.592 766.77 324.998C767.946 328.511 769.743 331.289 772.163 333.331C774.639 335.355 777.448 336.616 780.591 337.115C783.734 337.613 786.877 337.368 790.018 336.378L784.308 319.315L791.167 317.019L799.116 340.775L769.087 350.824L767.296 345.47L780.846 340.378L780.011 341.774C777.11 342 774.283 341.52 771.53 340.333C768.832 339.127 766.422 337.392 764.299 335.126C762.251 332.896 760.714 330.248 759.688 327.181Z" fill="black"/>
<path d="M772.231 366.896L834.204 357.881L839.867 396.81L832.535 397.877L827.964 366.454L807.975 369.361L812.394 399.737L805.237 400.778L800.818 370.403L780.655 373.336L785.327 405.457L777.995 406.524L772.231 366.896Z" fill="black"/>
<path d="M778.557 436.603L833.766 437.464L834.071 417.974L841.479 418.089L840.752 464.656L833.344 464.54L833.648 445.049L778.438 444.187L778.557 436.603Z" fill="black"/>
<path d="M768.974 515.876L822.503 529.425L827.286 510.527L834.469 512.345L823.041 557.494L815.858 555.676L820.641 536.778L767.113 523.23L768.974 515.876Z" fill="black"/>
<path d="M746.797 576.211C749.246 570.8 752.534 566.672 756.661 563.828C760.817 561.062 765.591 559.64 770.983 559.563C776.375 559.486 782.152 560.841 788.313 563.629C794.474 566.417 799.305 569.862 802.806 573.963C806.36 578.089 808.47 582.626 809.136 587.574C809.777 592.576 808.873 597.783 806.424 603.194C803.952 608.658 800.637 612.773 796.481 615.54C792.3 618.36 787.487 619.796 782.041 619.849C776.649 619.926 770.873 618.571 764.712 615.783C758.551 612.995 753.72 609.55 750.219 605.448C746.718 601.347 744.647 596.795 744.006 591.793C743.394 586.869 744.325 581.675 746.797 576.211ZM753.548 579.265C751.754 583.23 751.137 587.017 751.698 590.627C752.234 594.291 753.878 597.648 756.627 600.7C759.377 603.752 763.163 606.368 767.985 608.55C772.806 610.732 777.271 611.849 781.378 611.9C785.539 611.976 789.173 611.007 792.28 608.991C795.415 607.054 797.88 604.103 799.674 600.139C801.444 596.228 802.034 592.429 801.444 588.741C800.883 585.131 799.201 581.788 796.397 578.712C793.647 575.66 789.862 573.043 785.04 570.861C780.218 568.68 775.754 567.563 771.646 567.511C767.539 567.46 763.944 568.415 760.862 570.376C757.755 572.391 755.317 575.354 753.548 579.265Z" fill="black"/>
<path d="M705.331 648.647L762.971 678.171L757.436 684.345L709.96 659.076L740.302 703.456L734.531 709.892L687.055 684.624L717.397 729.004L711.803 735.243L676.185 681.156L682.544 674.064L726.908 697.253L699.03 655.675L705.331 648.647Z" fill="black"/>
<path d="M631.868 715.483C636.725 712.065 641.653 710.178 646.653 709.824C651.638 709.551 656.473 710.75 661.158 713.422C665.842 716.093 670.13 720.194 674.022 725.724C677.914 731.254 680.327 736.674 681.261 741.986C682.228 747.345 681.742 752.325 679.803 756.926C677.815 761.56 674.393 765.587 669.536 769.005C664.631 772.457 659.686 774.319 654.701 774.592C649.668 774.899 644.792 773.692 640.073 770.973C635.389 768.301 631.101 764.201 627.209 758.671C623.317 753.14 620.904 747.72 619.97 742.409C619.037 737.097 619.564 732.125 621.551 727.49C623.524 722.937 626.963 718.935 631.868 715.483ZM636.133 721.542C632.574 724.047 630.12 726.996 628.77 730.391C627.372 733.82 627.083 737.547 627.902 741.572C628.722 745.597 630.655 749.774 633.701 754.102C636.747 758.43 640.026 761.659 643.538 763.789C647.085 765.967 650.707 766.976 654.407 766.818C658.092 766.741 661.714 765.45 665.272 762.946C668.782 760.475 671.22 757.501 672.584 754.025C673.934 750.63 674.182 746.896 673.329 742.822C672.509 738.797 670.576 734.621 667.53 730.293C664.484 725.965 661.205 722.736 657.693 720.606C654.18 718.476 650.599 717.473 646.947 717.598C643.248 717.757 639.643 719.071 636.133 721.542Z" fill="black"/>
<path d="M594.686 740.709L620.258 797.875L598.599 807.564C594.574 809.365 590.799 810.216 587.276 810.117C583.753 810.018 580.625 809.001 577.892 807.067C575.129 805.211 572.955 802.512 571.371 798.969C570.218 796.393 569.803 793.808 570.125 791.216C570.418 788.702 571.239 786.434 572.59 784.413C573.94 782.392 575.611 780.871 577.603 779.851L578.41 780.36C574.921 781.921 571.823 782.34 569.117 781.618C566.357 780.92 564.023 778.872 562.117 775.473L552.979 759.366L559.984 756.232L568.636 771.687C569.907 773.953 571.547 775.313 573.554 775.768C575.507 776.247 578.148 775.742 581.476 774.253L598.063 766.834L587.762 743.806L594.686 740.709ZM601.088 773.597L585.468 780.585C581.979 782.145 579.611 784.268 578.363 786.951C577.116 789.635 577.225 792.614 578.689 795.889C580.178 799.217 582.365 801.298 585.251 802.133C588.161 803.022 591.602 802.577 595.574 800.801L610.308 794.209L601.088 773.597Z" fill="black"/>
<path d="M535.971 764.879L550.903 825.698L543.536 827.507L536.112 797.269L516.21 834.216L506.873 836.508L524.21 804.278L490.314 776.088L499.308 773.88L527.832 797.576L533.589 786.989L528.605 766.687L535.971 764.879Z" fill="black"/>
</svg>
