<svg width="1017" height="123" viewBox="0 0 1017 123" fill="none" xmlns="http://www.w3.org/2000/svg">
<line x1="2.77647" y1="86.0709" x2="2.77647" y2="119.389" stroke="#1F123E" stroke-width="5.55295" stroke-linecap="round"/>
<line x1="41.6471" y1="86.0709" x2="41.6471" y2="119.389" stroke="#1F123E" stroke-width="5.55295" stroke-linecap="round"/>
<line x1="80.5177" y1="97.1764" x2="80.5177" y2="119.388" stroke="#1F123E" stroke-width="5.55295" stroke-linecap="round"/>
<line x1="119.388" y1="102.73" x2="119.388" y2="119.388" stroke="#1F123E" stroke-width="5.55295" stroke-linecap="round"/>
<line x1="158.259" y1="102.73" x2="158.259" y2="119.388" stroke="#1F123E" stroke-width="5.55295" stroke-linecap="round"/>
<line x1="197.13" y1="113.836" x2="197.13" y2="119.389" stroke="#1F123E" stroke-width="5.55295" stroke-linecap="round"/>
<line x1="236" y1="108.282" x2="236" y2="119.388" stroke="#1F123E" stroke-width="5.55295" stroke-linecap="round"/>
<line x1="274.871" y1="108.282" x2="274.871" y2="119.388" stroke="#1F123E" stroke-width="5.55295" stroke-linecap="round"/>
<line x1="313.742" y1="102.73" x2="313.742" y2="119.388" stroke="#1F123E" stroke-width="5.55295" stroke-linecap="round"/>
<line x1="352.612" y1="102.73" x2="352.612" y2="119.388" stroke="#1F123E" stroke-width="5.55295" stroke-linecap="round"/>
<line x1="391.483" y1="97.1764" x2="391.483" y2="119.388" stroke="#1F123E" stroke-width="5.55295" stroke-linecap="round"/>
<line x1="430.353" y1="91.6236" x2="430.353" y2="119.388" stroke="#1F123E" stroke-width="5.55295" stroke-linecap="round"/>
<line x1="469.224" y1="91.6236" x2="469.224" y2="119.388" stroke="#1F123E" stroke-width="5.55295" stroke-linecap="round"/>
<line x1="508.095" y1="86.0709" x2="508.095" y2="119.389" stroke="#1F123E" stroke-width="5.55295" stroke-linecap="round"/>
<line x1="546.965" y1="80.5177" x2="546.965" y2="119.388" stroke="#1F123E" stroke-width="5.55295" stroke-linecap="round"/>
<line x1="585.836" y1="80.5177" x2="585.836" y2="119.388" stroke="#1F123E" stroke-width="5.55295" stroke-linecap="round"/>
<line x1="624.707" y1="80.5177" x2="624.707" y2="119.388" stroke="#1F123E" stroke-width="5.55295" stroke-linecap="round"/>
<line x1="663.577" y1="74.9649" x2="663.577" y2="119.389" stroke="#1F123E" stroke-width="5.55295" stroke-linecap="round"/>
<line x1="702.448" y1="69.4117" x2="702.448" y2="119.388" stroke="#1F123E" stroke-width="5.55295" stroke-linecap="round"/>
<line x1="741.318" y1="63.859" x2="741.318" y2="119.388" stroke="#1F123E" stroke-width="5.55295" stroke-linecap="round"/>
<line x1="780.189" y1="63.859" x2="780.189" y2="119.388" stroke="#1F123E" stroke-width="5.55295" stroke-linecap="round"/>
<line x1="819.06" y1="63.859" x2="819.06" y2="119.388" stroke="#1F123E" stroke-width="5.55295" stroke-linecap="round"/>
<line x1="857.93" y1="58.3058" x2="857.93" y2="119.388" stroke="#1F123E" stroke-width="5.55295" stroke-linecap="round"/>
<line x1="896.801" y1="47.1998" x2="896.801" y2="119.388" stroke="#1F123E" stroke-width="5.55295" stroke-linecap="round"/>
<line x1="935.671" y1="36.0943" x2="935.672" y2="119.389" stroke="#1F123E" stroke-width="5.55295" stroke-linecap="round"/>
<line x1="974.542" y1="19.4352" x2="974.542" y2="119.388" stroke="#1F123E" stroke-width="5.55295" stroke-linecap="round"/>
<line x1="1013.41" y1="2.77647" x2="1013.41" y2="119.388" stroke="#1F123E" stroke-width="5.55295" stroke-linecap="round"/>
</svg>
