<svg width="224" height="224" viewBox="0 0 224 224" fill="none" xmlns="http://www.w3.org/2000/svg">
<circle cx="5.87368" cy="5.87368" r="5.87368" fill="#1F123E"/>
<circle cx="29.3684" cy="5.87368" r="5.87368" fill="#1F123E"/>
<circle cx="52.8632" cy="5.87368" r="5.87368" fill="#1F123E"/>
<circle cx="76.3579" cy="5.87368" r="5.87368" fill="#1F123E"/>
<circle cx="99.8527" cy="5.87368" r="5.87368" fill="#1F123E"/>
<circle cx="123.347" cy="5.87368" r="5.87368" fill="#1F123E"/>
<circle cx="146.842" cy="5.87368" r="5.87368" fill="#1F123E"/>
<circle cx="170.337" cy="5.87368" r="5.87368" fill="#1F123E"/>
<circle cx="193.832" cy="5.87368" r="5.87368" fill="#1F123E"/>
<circle cx="217.326" cy="5.87368" r="5.87368" fill="#1F123E"/>
<circle cx="5.87368" cy="29.3683" r="5.87368" fill="#1F123E"/>
<circle cx="29.3684" cy="29.3683" r="5.87368" fill="#1F123E"/>
<circle cx="52.8632" cy="29.3683" r="5.87368" fill="#1F123E"/>
<circle cx="76.3579" cy="29.3683" r="5.87368" fill="#1F123E"/>
<circle cx="99.8527" cy="29.3683" r="5.87368" fill="#1F123E"/>
<circle cx="123.347" cy="29.3683" r="5.87368" fill="#1F123E"/>
<circle cx="146.842" cy="29.3683" r="5.87368" fill="#1F123E"/>
<circle cx="170.337" cy="29.3683" r="5.87368" fill="#1F123E"/>
<circle cx="193.832" cy="29.3683" r="5.87368" fill="#1F123E"/>
<circle cx="217.326" cy="29.3683" r="5.87368" fill="#1F123E"/>
<circle cx="5.87368" cy="52.8629" r="5.87368" fill="#1F123E"/>
<circle cx="29.3684" cy="52.8629" r="5.87368" fill="#1F123E"/>
<circle cx="52.8632" cy="52.8629" r="5.87368" fill="#1F123E"/>
<circle cx="76.3579" cy="52.8629" r="5.87368" fill="#1F123E"/>
<circle cx="99.8527" cy="52.8629" r="5.87368" fill="#1F123E"/>
<circle cx="123.347" cy="52.8629" r="5.87368" fill="#1F123E"/>
<circle cx="146.842" cy="52.8629" r="5.87368" fill="#1F123E"/>
<circle cx="170.337" cy="52.8629" r="5.87368" fill="#1F123E"/>
<circle cx="193.832" cy="52.8629" r="5.87368" fill="#1F123E"/>
<circle cx="217.326" cy="52.8629" r="5.87368" fill="#1F123E"/>
<circle cx="5.87368" cy="76.3581" r="5.87368" fill="#1F123E"/>
<circle cx="29.3684" cy="76.3581" r="5.87368" fill="#1F123E"/>
<circle cx="52.8632" cy="76.3581" r="5.87368" fill="#1F123E"/>
<circle cx="76.3579" cy="76.3581" r="5.87368" fill="#1F123E"/>
<circle cx="99.8527" cy="76.3581" r="5.87368" fill="#1F123E"/>
<circle cx="123.347" cy="76.3581" r="5.87368" fill="#1F123E"/>
<circle cx="146.842" cy="76.3581" r="5.87368" fill="#1F123E"/>
<circle cx="170.337" cy="76.3581" r="5.87368" fill="#1F123E"/>
<circle cx="193.832" cy="76.3581" r="5.87368" fill="#1F123E"/>
<circle cx="217.326" cy="76.3581" r="5.87368" fill="#1F123E"/>
<circle cx="5.87368" cy="99.8527" r="5.87368" fill="#D7D9FF"/>
<circle cx="29.3684" cy="99.8527" r="5.87368" fill="#D7D9FF"/>
<circle cx="52.8632" cy="99.8527" r="5.87368" fill="#D7D9FF"/>
<circle cx="76.3579" cy="99.8527" r="5.87368" fill="#D7D9FF"/>
<circle cx="99.8527" cy="99.8527" r="5.87368" fill="#D7D9FF"/>
<circle cx="123.347" cy="99.8527" r="5.87368" fill="#D7D9FF"/>
<circle cx="146.842" cy="99.8527" r="5.87368" fill="#D7D9FF"/>
<circle cx="170.337" cy="99.8527" r="5.87368" fill="#D7D9FF"/>
<circle cx="193.832" cy="99.8527" r="5.87368" fill="#D7D9FF"/>
<circle cx="217.326" cy="99.8527" r="5.87368" fill="#D7D9FF"/>
<circle cx="5.87368" cy="123.347" r="5.87368" fill="#D7D9FF"/>
<circle cx="29.3684" cy="123.347" r="5.87368" fill="#D7D9FF"/>
<circle cx="52.8632" cy="123.347" r="5.87368" fill="#D7D9FF"/>
<circle cx="76.3579" cy="123.347" r="5.87368" fill="#D7D9FF"/>
<circle cx="99.8527" cy="123.347" r="5.87368" fill="#D7D9FF"/>
<circle cx="123.347" cy="123.347" r="5.87368" fill="#D7D9FF"/>
<circle cx="146.842" cy="123.347" r="5.87368" fill="#D7D9FF"/>
<circle cx="170.337" cy="123.347" r="5.87368" fill="#D7D9FF"/>
<circle cx="193.832" cy="123.347" r="5.87368" fill="#D7D9FF"/>
<circle cx="217.326" cy="123.347" r="5.87368" fill="#D7D9FF"/>
<circle cx="5.87368" cy="146.842" r="5.87368" fill="#D7D9FF"/>
<circle cx="29.3684" cy="146.842" r="5.87368" fill="#D7D9FF"/>
<circle cx="52.8632" cy="146.842" r="5.87368" fill="#D7D9FF"/>
<circle cx="76.3579" cy="146.842" r="5.87368" fill="#D7D9FF"/>
<circle cx="99.8527" cy="146.842" r="5.87368" fill="#D7D9FF"/>
<circle cx="123.347" cy="146.842" r="5.87368" fill="#D7D9FF"/>
<circle cx="146.842" cy="146.842" r="5.87368" fill="#D7D9FF"/>
<circle cx="170.337" cy="146.842" r="5.87368" fill="#D7D9FF"/>
<circle cx="193.832" cy="146.842" r="5.87368" fill="#D7D9FF"/>
<circle cx="217.326" cy="146.842" r="5.87368" fill="#D7D9FF"/>
<circle cx="5.87368" cy="170.337" r="5.87368" fill="#D7D9FF"/>
<circle cx="29.3684" cy="170.337" r="5.87368" fill="#D7D9FF"/>
<circle cx="52.8632" cy="170.337" r="5.87368" fill="#D7D9FF"/>
<circle cx="76.3579" cy="170.337" r="5.87368" fill="#D7D9FF"/>
<circle cx="99.8527" cy="170.337" r="5.87368" fill="#D7D9FF"/>
<circle cx="123.347" cy="170.337" r="5.87368" fill="#D7D9FF"/>
<circle cx="146.842" cy="170.337" r="5.87368" fill="#D7D9FF"/>
<circle cx="170.337" cy="170.337" r="5.87368" fill="#D7D9FF"/>
<circle cx="193.832" cy="170.337" r="5.87368" fill="#D7D9FF"/>
<circle cx="217.326" cy="170.337" r="5.87368" fill="#D7D9FF"/>
<circle cx="5.87368" cy="193.832" r="5.87368" fill="#D7D9FF"/>
<circle cx="29.3684" cy="193.832" r="5.87368" fill="#D7D9FF"/>
<circle cx="52.8632" cy="193.832" r="5.87368" fill="#D7D9FF"/>
<circle cx="76.3579" cy="193.832" r="5.87368" fill="#D7D9FF"/>
<circle cx="99.8527" cy="193.832" r="5.87368" fill="#D7D9FF"/>
<circle cx="123.347" cy="193.832" r="5.87368" fill="#D7D9FF"/>
<circle cx="146.842" cy="193.832" r="5.87368" fill="#D7D9FF"/>
<circle cx="170.337" cy="193.832" r="5.87368" fill="#D7D9FF"/>
<circle cx="193.832" cy="193.832" r="5.87368" fill="#D7D9FF"/>
<circle cx="217.326" cy="193.832" r="5.87368" fill="#D7D9FF"/>
<circle cx="5.87368" cy="217.326" r="5.87368" fill="#D7D9FF"/>
<circle cx="29.3684" cy="217.326" r="5.87368" fill="#D7D9FF"/>
<circle cx="52.8632" cy="217.326" r="5.87368" fill="#D7D9FF"/>
<circle cx="76.3579" cy="217.326" r="5.87368" fill="#D7D9FF"/>
<circle cx="99.8527" cy="217.326" r="5.87368" fill="#D7D9FF"/>
<circle cx="123.347" cy="217.326" r="5.87368" fill="#D7D9FF"/>
<circle cx="146.842" cy="217.326" r="5.87368" fill="#D7D9FF"/>
<circle cx="170.337" cy="217.326" r="5.87368" fill="#D7D9FF"/>
<circle cx="193.832" cy="217.326" r="5.87368" fill="#D7D9FF"/>
<circle cx="217.326" cy="217.326" r="5.87368" fill="#D7D9FF"/>
</svg>
